<svg xmlns="http://www.w3.org/2000/svg" xmlns:xlink="http://www.w3.org/1999/xlink" width="1121.9" height="1633.3">
  <defs>
    <radialGradient xlink:href="#a" id="b" cx="248.9" cy="618.9" r="256.3" fx="248.9" fy="618.9" gradientTransform="matrix(1 0 0 .95 -1466 240)" gradientUnits="userSpaceOnUse"/>
    <radialGradient xlink:href="#a" id="c" cx="248.9" cy="618.9" r="256.3" fx="248.9" fy="618.9" gradientTransform="matrix(1 0 0 .95 -1466 240)" gradientUnits="userSpaceOnUse"/>
    <radialGradient xlink:href="#a" id="d" cx="248.9" cy="618.9" r="256.3" fx="248.9" fy="618.9" gradientTransform="matrix(1 0 0 .95 -1466 240)" gradientUnits="userSpaceOnUse"/>
    <radialGradient xlink:href="#a" id="e" cx="248.9" cy="618.9" r="256.3" fx="248.9" fy="618.9" gradientTransform="matrix(1 0 0 .95 -1466 240)" gradientUnits="userSpaceOnUse"/>
    <radialGradient xlink:href="#a" id="f" cx="248.9" cy="618.9" r="256.3" fx="248.9" fy="618.9" gradientTransform="matrix(1 0 0 .95 -1466 240)" gradientUnits="userSpaceOnUse"/>
    <radialGradient xlink:href="#a" id="g" cx="248.9" cy="618.9" r="256.3" fx="248.9" fy="618.9" gradientTransform="matrix(1 0 0 .95 -1466 240)" gradientUnits="userSpaceOnUse"/>
    <radialGradient xlink:href="#a" id="h" cx="248.9" cy="618.9" r="256.3" fx="248.9" fy="618.9" gradientTransform="matrix(1 0 0 .95 -1466 240)" gradientUnits="userSpaceOnUse"/>
    <radialGradient xlink:href="#a" id="i" cx="248.9" cy="618.9" r="256.3" fx="248.9" fy="618.9" gradientTransform="matrix(1 0 0 .95 -1466 240)" gradientUnits="userSpaceOnUse"/>
    <radialGradient xlink:href="#a" id="j" cx="248.9" cy="618.9" r="256.3" fx="248.9" fy="618.9" gradientTransform="matrix(1 0 0 .95 -1466 240)" gradientUnits="userSpaceOnUse"/>
    <radialGradient xlink:href="#a" id="k" cx="248.9" cy="618.9" r="256.3" fx="248.9" fy="618.9" gradientTransform="matrix(1 0 0 .95 -1466 240)" gradientUnits="userSpaceOnUse"/>
    <radialGradient xlink:href="#a" id="l" cx="248.9" cy="618.9" r="256.3" fx="248.9" fy="618.9" gradientTransform="matrix(1 0 0 .95 -1466 240)" gradientUnits="userSpaceOnUse"/>
    <radialGradient xlink:href="#a" id="m" cx="248.9" cy="618.9" r="256.3" fx="248.9" fy="618.9" gradientTransform="matrix(1 0 0 .95 -1466 240)" gradientUnits="userSpaceOnUse"/>
    <radialGradient xlink:href="#a" id="n" cx="248.9" cy="618.9" r="256.3" fx="248.9" fy="618.9" gradientTransform="matrix(1 0 0 .95 -1466 240)" gradientUnits="userSpaceOnUse"/>
    <radialGradient xlink:href="#a" id="o" cx="248.9" cy="618.9" r="256.3" fx="248.9" fy="618.9" gradientTransform="matrix(1 0 0 .95 -1466 240)" gradientUnits="userSpaceOnUse"/>
    <radialGradient xlink:href="#a" id="p" cx="248.9" cy="618.9" r="256.3" fx="248.9" fy="618.9" gradientTransform="matrix(1 0 0 .95 -1466 240)" gradientUnits="userSpaceOnUse"/>
    <radialGradient xlink:href="#a" id="q" cx="248.9" cy="618.9" r="256.3" fx="248.9" fy="618.9" gradientTransform="matrix(1 0 0 .95 -1466 240)" gradientUnits="userSpaceOnUse"/>
    <radialGradient xlink:href="#a" id="r" cx="248.9" cy="618.9" r="256.3" fx="248.9" fy="618.9" gradientTransform="matrix(1 0 0 .95 -1466 240)" gradientUnits="userSpaceOnUse"/>
    <radialGradient xlink:href="#a" id="s" cx="248.9" cy="618.9" r="256.3" fx="248.9" fy="618.9" gradientTransform="matrix(1 0 0 .95 -1466 240)" gradientUnits="userSpaceOnUse"/>
    <radialGradient xlink:href="#a" id="t" cx="248.9" cy="618.9" r="256.3" fx="248.9" fy="618.9" gradientTransform="matrix(1 0 0 .95 -1466 240)" gradientUnits="userSpaceOnUse"/>
    <radialGradient xlink:href="#a" id="u" cx="248.9" cy="618.9" r="256.3" fx="248.9" fy="618.9" gradientTransform="matrix(1 0 0 .95 -1466 240)" gradientUnits="userSpaceOnUse"/>
    <radialGradient xlink:href="#a" id="v" cx="248.9" cy="618.9" r="256.3" fx="248.9" fy="618.9" gradientTransform="matrix(1 0 0 .95 -1469 238)" gradientUnits="userSpaceOnUse"/>
    <radialGradient xlink:href="#a" id="w" cx="248.9" cy="618.9" r="256.3" fx="248.9" fy="618.9" gradientTransform="matrix(1 0 0 .95 -1466 240)" gradientUnits="userSpaceOnUse"/>
    <radialGradient xlink:href="#a" id="x" cx="248.9" cy="618.9" r="256.3" fx="248.9" fy="618.9" gradientTransform="matrix(1 0 0 .95 -1466 240)" gradientUnits="userSpaceOnUse"/>
    <radialGradient xlink:href="#a" id="y" cx="248.9" cy="618.9" r="256.3" fx="248.9" fy="618.9" gradientTransform="matrix(1 0 0 .95 -1466 240)" gradientUnits="userSpaceOnUse"/>
    <radialGradient xlink:href="#a" id="z" cx="248.9" cy="618.9" r="256.3" fx="248.9" fy="618.9" gradientTransform="matrix(1 0 0 .95 -1466 240)" gradientUnits="userSpaceOnUse"/>
    <radialGradient xlink:href="#a" id="A" cx="248.9" cy="618.9" r="256.3" fx="248.9" fy="618.9" gradientTransform="matrix(1 0 0 .95 -1466 240)" gradientUnits="userSpaceOnUse"/>
    <radialGradient xlink:href="#a" id="B" cx="248.9" cy="618.9" r="256.3" fx="248.9" fy="618.9" gradientTransform="matrix(1 0 0 .95 -1466 240)" gradientUnits="userSpaceOnUse"/>
    <radialGradient xlink:href="#a" id="C" cx="248.9" cy="618.9" r="256.3" fx="248.9" fy="618.9" gradientTransform="matrix(1 0 0 .95 -1466 240)" gradientUnits="userSpaceOnUse"/>
    <radialGradient xlink:href="#a" id="D" cx="248.9" cy="618.9" r="256.3" fx="248.9" fy="618.9" gradientTransform="matrix(1 0 0 .95 -1466 240)" gradientUnits="userSpaceOnUse"/>
    <radialGradient xlink:href="#a" id="E" cx="248.9" cy="618.9" r="256.3" fx="248.9" fy="618.9" gradientTransform="matrix(1 0 0 .95 -1466 240)" gradientUnits="userSpaceOnUse"/>
    <radialGradient xlink:href="#a" id="F" cx="248.9" cy="618.9" r="256.3" fx="248.9" fy="618.9" gradientTransform="matrix(1 0 0 .95 -1466 240)" gradientUnits="userSpaceOnUse"/>
    <radialGradient xlink:href="#a" id="G" cx="248.9" cy="618.9" r="256.3" fx="248.9" fy="618.9" gradientTransform="matrix(1 0 0 .95 -1466 240)" gradientUnits="userSpaceOnUse"/>
    <radialGradient xlink:href="#a" id="H" cx="248.9" cy="618.9" r="256.3" fx="248.9" fy="618.9" gradientTransform="matrix(-1 0 0 .95 -968 240)" gradientUnits="userSpaceOnUse"/>
    <radialGradient xlink:href="#a" id="I" cx="248.9" cy="618.9" r="256.3" fx="248.9" fy="618.9" gradientTransform="matrix(-1 0 0 .95 -968 240)" gradientUnits="userSpaceOnUse"/>
    <radialGradient xlink:href="#a" id="J" cx="248.9" cy="618.9" r="256.3" fx="248.9" fy="618.9" gradientTransform="matrix(-1 0 0 .95 -968 240)" gradientUnits="userSpaceOnUse"/>
    <radialGradient xlink:href="#a" id="K" cx="248.9" cy="618.9" r="256.3" fx="248.9" fy="618.9" gradientTransform="matrix(-1 0 0 .95 -968 240)" gradientUnits="userSpaceOnUse"/>
    <radialGradient xlink:href="#a" id="L" cx="248.9" cy="618.9" r="256.3" fx="248.9" fy="618.9" gradientTransform="matrix(-1 0 0 .95 -968 240)" gradientUnits="userSpaceOnUse"/>
    <radialGradient xlink:href="#a" id="M" cx="248.9" cy="618.9" r="256.3" fx="248.9" fy="618.9" gradientTransform="matrix(-1 0 0 .95 -968 240)" gradientUnits="userSpaceOnUse"/>
    <radialGradient xlink:href="#a" id="N" cx="248.9" cy="618.9" r="256.3" fx="248.9" fy="618.9" gradientTransform="matrix(-1 0 0 .95 -968 240)" gradientUnits="userSpaceOnUse"/>
    <radialGradient xlink:href="#a" id="O" cx="248.9" cy="618.9" r="256.3" fx="248.9" fy="618.9" gradientTransform="matrix(-1 0 0 .95 -968 240)" gradientUnits="userSpaceOnUse"/>
    <radialGradient xlink:href="#a" id="P" cx="248.9" cy="618.9" r="256.3" fx="248.9" fy="618.9" gradientTransform="matrix(-1 0 0 .95 -968 240)" gradientUnits="userSpaceOnUse"/>
    <radialGradient xlink:href="#a" id="Q" cx="248.9" cy="618.9" r="256.3" fx="248.9" fy="618.9" gradientTransform="matrix(-1 0 0 .95 -968 240)" gradientUnits="userSpaceOnUse"/>
    <radialGradient xlink:href="#a" id="aj" cx="1247.6" cy="668.3" r="227.2" fx="1247.6" fy="668.3" gradientTransform="matrix(1 0 0 1.14 -870 -118)" gradientUnits="userSpaceOnUse"/>
    <radialGradient xlink:href="#a" id="ak" cx="1247.6" cy="668.3" r="227.2" fx="1247.6" fy="668.3" gradientTransform="matrix(1 0 0 1.14 -870 -118)" gradientUnits="userSpaceOnUse"/>
    <radialGradient xlink:href="#a" id="al" cx="1247.6" cy="668.3" r="227.2" fx="1247.6" fy="668.3" gradientTransform="matrix(1 0 0 1.14 -870 -118)" gradientUnits="userSpaceOnUse"/>
    <radialGradient xlink:href="#a" id="am" cx="1247.6" cy="668.3" r="227.2" fx="1247.6" fy="668.3" gradientTransform="matrix(1 0 0 1.14 -870 -118)" gradientUnits="userSpaceOnUse"/>
    <radialGradient xlink:href="#a" id="an" cx="1247.6" cy="668.3" r="227.2" fx="1247.6" fy="668.3" gradientTransform="matrix(1 0 0 1.14 -870 -118)" gradientUnits="userSpaceOnUse"/>
    <radialGradient xlink:href="#a" id="ao" cx="1247.6" cy="668.3" r="227.2" fx="1247.6" fy="668.3" gradientTransform="matrix(1 0 0 1.14 -870 -118)" gradientUnits="userSpaceOnUse"/>
    <radialGradient xlink:href="#a" id="ap" cx="1247.6" cy="668.3" r="227.2" fx="1247.6" fy="668.3" gradientTransform="matrix(1 0 0 1.14 -870 -118)" gradientUnits="userSpaceOnUse"/>
    <radialGradient xlink:href="#a" id="aq" cx="1247.6" cy="668.3" r="227.2" fx="1247.6" fy="668.3" gradientTransform="matrix(1 0 0 1.14 -870 -118)" gradientUnits="userSpaceOnUse"/>
    <radialGradient xlink:href="#a" id="ar" cx="1247.6" cy="668.3" r="227.2" fx="1247.6" fy="668.3" gradientTransform="matrix(1 0 0 1.14 -870 -118)" gradientUnits="userSpaceOnUse"/>
    <radialGradient xlink:href="#a" id="as" cx="1247.6" cy="668.3" r="227.2" fx="1247.6" fy="668.3" gradientTransform="matrix(1 0 0 1.14 -870 -118)" gradientUnits="userSpaceOnUse"/>
    <radialGradient xlink:href="#a" id="at" cx="1247.6" cy="668.3" r="227.2" fx="1247.6" fy="668.3" gradientTransform="matrix(1 0 0 1.14 -870 -118)" gradientUnits="userSpaceOnUse"/>
    <radialGradient xlink:href="#a" id="au" cx="1247.6" cy="668.3" r="227.2" fx="1247.6" fy="668.3" gradientTransform="matrix(1 0 0 1.14 -866 -118)" gradientUnits="userSpaceOnUse"/>
    <radialGradient xlink:href="#a" id="av" cx="1247.6" cy="668.3" r="227.2" fx="1247.6" fy="668.3" gradientTransform="matrix(1 0 0 1.14 -870 -118)" gradientUnits="userSpaceOnUse"/>
    <radialGradient xlink:href="#a" id="aw" cx="1247.6" cy="668.3" r="227.2" fx="1247.6" fy="668.3" gradientTransform="matrix(1 0 0 1.14 -870 -118)" gradientUnits="userSpaceOnUse"/>
    <radialGradient xlink:href="#a" id="ax" cx="1247.6" cy="668.3" r="227.2" fx="1247.6" fy="668.3" gradientTransform="matrix(1 0 0 1.14 -870 -118)" gradientUnits="userSpaceOnUse"/>
    <radialGradient xlink:href="#a" id="ay" cx="1247.6" cy="668.3" r="227.2" fx="1247.6" fy="668.3" gradientTransform="matrix(1 0 0 1.14 -870 -118)" gradientUnits="userSpaceOnUse"/>
    <radialGradient xlink:href="#a" id="az" cx="1247.6" cy="668.3" r="227.2" fx="1247.6" fy="668.3" gradientTransform="matrix(1 0 0 1.14 -870 -118)" gradientUnits="userSpaceOnUse"/>
    <radialGradient xlink:href="#a" id="aA" cx="1247.6" cy="668.3" r="227.2" fx="1247.6" fy="668.3" gradientTransform="matrix(1 0 0 1.14 -870 -118)" gradientUnits="userSpaceOnUse"/>
    <radialGradient xlink:href="#a" id="aB" cx="1247.6" cy="668.3" r="227.2" fx="1247.6" fy="668.3" gradientTransform="matrix(1 0 0 1.14 -870 -118)" gradientUnits="userSpaceOnUse"/>
    <radialGradient xlink:href="#a" id="aC" cx="1247.6" cy="668.3" r="227.2" fx="1247.6" fy="668.3" gradientTransform="matrix(1 0 0 1.14 -870 -118)" gradientUnits="userSpaceOnUse"/>
    <radialGradient xlink:href="#a" id="aD" cx="1247.6" cy="668.3" r="227.2" fx="1247.6" fy="668.3" gradientTransform="matrix(1 0 0 1.14 -870 -118)" gradientUnits="userSpaceOnUse"/>
    <radialGradient xlink:href="#a" id="aE" cx="1247.6" cy="668.3" r="227.2" fx="1247.6" fy="668.3" gradientTransform="matrix(1 0 0 1.14 -870 -118)" gradientUnits="userSpaceOnUse"/>
    <radialGradient xlink:href="#a" id="aF" cx="1247.6" cy="668.3" r="227.2" fx="1247.6" fy="668.3" gradientTransform="matrix(1 0 0 1.14 -870 -118)" gradientUnits="userSpaceOnUse"/>
    <radialGradient xlink:href="#a" id="aG" cx="1247.6" cy="668.3" r="227.2" fx="1247.6" fy="668.3" gradientTransform="matrix(1 0 0 1.14 -870 -118)" gradientUnits="userSpaceOnUse"/>
    <radialGradient xlink:href="#a" id="aH" cx="1247.6" cy="668.3" r="227.2" fx="1247.6" fy="668.3" gradientTransform="matrix(1 0 0 1.14 -870 -118)" gradientUnits="userSpaceOnUse"/>
    <radialGradient xlink:href="#a" id="aI" cx="1247.6" cy="668.3" r="227.2" fx="1247.6" fy="668.3" gradientTransform="matrix(1 0 0 1.14 -870 -118)" gradientUnits="userSpaceOnUse"/>
    <radialGradient xlink:href="#a" id="aJ" cx="1247.6" cy="668.3" r="227.2" fx="1247.6" fy="668.3" gradientTransform="matrix(1 0 0 1.14 -870 -118)" gradientUnits="userSpaceOnUse"/>
    <radialGradient xlink:href="#a" id="aK" cx="1247.6" cy="668.3" r="227.2" fx="1247.6" fy="668.3" gradientTransform="matrix(1 0 0 1.14 -870 -118)" gradientUnits="userSpaceOnUse"/>
    <radialGradient xlink:href="#a" id="aL" cx="1247.6" cy="668.3" r="227.2" fx="1247.6" fy="668.3" gradientTransform="matrix(1 0 0 1.14 -870 -118)" gradientUnits="userSpaceOnUse"/>
    <radialGradient xlink:href="#a" id="aM" cx="1247.6" cy="668.3" r="227.2" fx="1247.6" fy="668.3" gradientTransform="matrix(1 0 0 1.14 -870 -118)" gradientUnits="userSpaceOnUse"/>
    <radialGradient xlink:href="#a" id="aN" cx="1247.6" cy="668.3" r="227.2" fx="1247.6" fy="668.3" gradientTransform="matrix(-1 0 0 1.14 1630 -118)" gradientUnits="userSpaceOnUse"/>
    <radialGradient xlink:href="#a" id="aO" cx="1247.6" cy="668.3" r="227.2" fx="1247.6" fy="668.3" gradientTransform="matrix(-1 0 0 1.14 1628 -118)" gradientUnits="userSpaceOnUse"/>
    <radialGradient xlink:href="#a" id="aP" cx="1247.6" cy="668.3" r="227.2" fx="1247.6" fy="668.3" gradientTransform="matrix(-1 0 0 1.14 1629 -118)" gradientUnits="userSpaceOnUse"/>
    <radialGradient xlink:href="#a" id="aQ" cx="1247.6" cy="668.3" r="227.2" fx="1247.6" fy="668.3" gradientTransform="matrix(-1 0 0 1.14 1628 -118)" gradientUnits="userSpaceOnUse"/>
    <radialGradient xlink:href="#a" id="aR" cx="1247.6" cy="668.3" r="227.2" fx="1247.6" fy="668.3" gradientTransform="matrix(-1 0 0 1.14 1630 -118)" gradientUnits="userSpaceOnUse"/>
    <radialGradient xlink:href="#a" id="aS" cx="1247.6" cy="668.3" r="227.2" fx="1247.6" fy="668.3" gradientTransform="matrix(-1 0 0 1.14 1629 -118)" gradientUnits="userSpaceOnUse"/>
    <linearGradient id="T">
      <stop offset="0" style="stop-color:#fff;stop-opacity:1"/>
      <stop offset="1" style="stop-color:#fff;stop-opacity:0"/>
    </linearGradient>
    <linearGradient id="S">
      <stop offset="0" style="stop-color:#fff;stop-opacity:1"/>
      <stop offset="1" style="stop-color:#fff;stop-opacity:0"/>
    </linearGradient>
    <linearGradient id="R">
      <stop offset="0" style="stop-color:#000;stop-opacity:1"/>
      <stop offset="1" style="stop-color:#000;stop-opacity:0"/>
    </linearGradient>
    <linearGradient id="a">
      <stop offset="0" style="stop-color:#1d3ce8;stop-opacity:.07291666"/>
      <stop offset="1" style="stop-color:#fff;stop-opacity:.34375"/>
    </linearGradient>
    <linearGradient xlink:href="#R" id="V" x1="1042.2" x2="1184.4" y1="798.3" y2="859.3" gradientTransform="translate(-865 -12)" gradientUnits="userSpaceOnUse"/>
    <linearGradient xlink:href="#a" id="W" x1="1048.1" x2="1223.2" y1="834.1" y2="834.1" gradientTransform="translate(-864 -13)" gradientUnits="userSpaceOnUse"/>
    <linearGradient xlink:href="#T" id="X" x1="186.8" x2="462.2" y1="786.1" y2="908.9" gradientUnits="userSpaceOnUse"/>
    <linearGradient xlink:href="#a" id="Y" x1="1101.4" x2="1224.2" y1="839.1" y2="839.1" gradientTransform="translate(-866 -14)" gradientUnits="userSpaceOnUse"/>
    <linearGradient xlink:href="#T" id="Z" x1="186.8" x2="462.2" y1="786.1" y2="908.9" gradientUnits="userSpaceOnUse"/>
    <linearGradient xlink:href="#a" id="aa" x1="1159.4" x2="1233.3" y1="846.3" y2="846.3" gradientTransform="translate(-865 -12)" gradientUnits="userSpaceOnUse"/>
    <linearGradient xlink:href="#a" id="ab" x1="1186.2" x2="1232" y1="848.6" y2="848.6" gradientTransform="translate(-865 -12)" gradientUnits="userSpaceOnUse"/>
    <linearGradient xlink:href="#T" id="U" x1="186.8" x2="462.2" y1="786.1" y2="908.9" gradientUnits="userSpaceOnUse"/>
    <linearGradient xlink:href="#R" id="ac" x1="1042.2" x2="1184.4" y1="798.3" y2="859.3" gradientTransform="matrix(-1.55 0 0 1.55 2534 -632)" gradientUnits="userSpaceOnUse"/>
    <linearGradient xlink:href="#a" id="ad" x1="1048.1" x2="1223.2" y1="834.1" y2="834.1" gradientTransform="matrix(-1.55 0 0 1.55 2533 -632)" gradientUnits="userSpaceOnUse"/>
    <linearGradient xlink:href="#a" id="ae" x1="1071.9" x2="1212.6" y1="833" y2="833" gradientTransform="matrix(-1.55 0 0 1.55 2534 -632)" gradientUnits="userSpaceOnUse"/>
    <linearGradient xlink:href="#S" id="af" x1="576.3" x2="298.3" y1="785" y2="894.4" gradientTransform="matrix(1.55 0 0 1.55 13 -612)" gradientUnits="userSpaceOnUse"/>
    <linearGradient xlink:href="#a" id="ag" x1="1122.3" x2="1284.9" y1="815.7" y2="883.1" gradientTransform="matrix(-1.55 0 0 1.55 2534 -632)" gradientUnits="userSpaceOnUse"/>
    <linearGradient xlink:href="#a" id="ah" x1="1159.4" x2="1233.3" y1="846.3" y2="846.3" gradientTransform="matrix(-1.55 0 0 1.55 2534 -632)" gradientUnits="userSpaceOnUse"/>
    <linearGradient xlink:href="#a" id="ai" x1="1186.2" x2="1232" y1="848.6" y2="848.6" gradientTransform="matrix(-1.55 0 0 1.55 2534 -632)" gradientUnits="userSpaceOnUse"/>
  </defs>
  <path d="M345 859c-53-25-178-70-227-145-112-174 7-423-16-604-9-72-13-125-61-212 48-33 51-41 51-41l-51-68 90-35c-11-288 317-226 471-368 153 142 481 80 470 368l91 35-52 68s3 8 51 41c-48 87-50 139-61 212-31 199 96 430-16 604-49 75-174 120-226 145-53 24-190 90-257 160-68-70-205-136-257-160Z" style="fill:#193d8c;fill-opacity:1;stroke:none" transform="translate(-41 614)"/>
  <path d="m597 730-64 36M607 730l65 36" style="fill:none;stroke:#fff;stroke-width:6.20931959;stroke-linecap:butt;stroke-linejoin:miter;stroke-miterlimit:4;stroke-dasharray:none;stroke-opacity:1" transform="translate(-41 614)"/>
  <path d="m79-106 14-12c11-10 9-8 16 3L212 46c101 160-17 390 43 523 35 78 149 122 252 165 37 16 95 46 95 46s57-30 94-46c103-43 217-87 252-165 60-133-58-363 44-523l102-161c7-11 6-13 17-3l13 12 10 9-6 12c-25 54-30 66-41 111-18 70-24 163-16 227 21 183 83 319-9 449-50 68-145 101-233 144-67 32-149 67-227 135-79-68-161-103-228-135-88-43-183-76-232-144-93-130-31-266-9-449 7-64 0-154-16-227-11-46-17-57-42-111l-6-13z" style="fill:#ffec00;fill-opacity:1;stroke:none" transform="translate(-41 614)"/>
  <g style="stroke:#fff;stroke-width:.82203281;stroke-miterlimit:4;stroke-dasharray:none;stroke-opacity:1">
    <path d="m-2361 234-5-13-5-11-4-11a52 52 0 0 0-17 7c-1 0-2-1-5-7-2-5-2-8-1-9l12-5a352 352 0 0 0 30-11l13-4 1 2 2 7 2 5c1 1-8 5-16 7l-3 1 4 10a1855 1855 0 0 1 13 36c2 1 0 3-7 5l-7 3c-2 2-3-1-7-12zM-2313 228l-2-7-2-5-1-1a338 338 0 0 0-15-48 247 247 0 0 1 19-7l25-5c9 0 15 6 17 17 0 6-2 12-6 15-3 3-3 4 0 4 3 1 16 13 19 19 3 5 4 4 5-14l4-52c1-2 2-3 9-4 14-3 13-3 16 2a530 530 0 0 0 20 33 1597 1597 0 0 0 13 23c0 1-2 2-5 2l-9 2-4 1-3-5c-2-4-3-5-5-5a548 548 0 0 1-17 5c-1 1-2 3-2 7v5l-3 1c-4 0-10 2-26 7l-9 2-5-6-11-11c-4-5-5-5-8-5-4 0-5 2-2 8l2 5 2 7c3 8 3 8-7 11-8 2-8 2-9-1zm16-44 5-5v-5c-2-3-2-3-9-2l-9 1-1 2 2 4c1 7 2 7 5 7l7-2v0zm73-5-5-10c-6-12-6-12-7 3v10l6-1 6-2zM-2186 192a4667 4667 0 0 1-12-59c-1-3-1-2 12-5a6844 6844 0 0 0 30-5h6l2 6 1 7-6 2-14 2-8 1v6l1 6 9-1 11-2h4l2 6v7a242 242 0 0 1-23 4l1 4 3 22c0 1-5 3-10 3l-6 1c-1 1-2 0-3-5zM-2129 188l-1-7a5401 5401 0 0 1-8-56l-1-5h6a1598 1598 0 0 0 31-4l12-1 1 4v10l-11 2c-17 1-17 1-17 4l1 6 1 3h4c14-2 19-2 19-1l1 7v5l-10 1c-13 2-13 2-12 6l2 23-6 2a238 238 0 0 0-12 1v0zM-2073 175a20989 20989 0 0 0-5-61l10-1h9l2 20 2 34 1 14h-13l-5 1-1-7zM-2024 178c-8-3-14-10-18-19-2-6-2-9-2-18 0-12 1-17 7-23 5-6 11-9 23-9 12-1 17 1 22 7 4 5 7 12 6 13l-15 4-1-2-3-4c-3-2-4-3-8-3s-5 1-8 3c-4 6-5 12-3 24 0 4 1 7 4 9 2 3 3 3 7 3 6 0 9-3 11-8l2-5a185 185 0 0 1 14 4c2 0 2 4-1 9-3 7-7 11-12 13-3 2-21 3-25 2zM-1942 178h-5v-7l2-34v-28l18 1c20 0 26 2 31 7 3 4 4 8 4 18-1 6-1 8-4 11-4 6-8 7-20 7l-10 1-2 21v3h-14zm26-39 3-2c6-6 1-13-8-13h-4l-1 8v7l3 1h4l3-1zM-1864 183c-8-3-14-7-17-13-9-18-3-44 12-52 6-3 7-3 16-3 10 0 11 0 17 3 11 5 16 14 16 28s-5 26-12 32c-6 5-9 6-18 7-7 0-9 0-14-2zm17-15c3-2 6-9 7-18 1-13-2-18-12-19-4-1-5 0-8 3-3 4-5 8-6 17-1 11 4 18 13 18l6-1zM-1773 196l-5-1a209 209 0 0 1-30-5c-6-1-7-1-7-3l2-10a825 825 0 0 1 9-56l9 2 9 2-1 10a11871 11871 0 0 0-7 39c0 1 2 2 14 4l15 3-1 8c-2 7-2 7-4 8l-3-1zM-1750 201l-9-3a226 226 0 0 1 6-30 472 472 0 0 1 8-35h3a132 132 0 0 0 13 2c3 1 4 2 3 4a7888 7888 0 0 1-15 64l-9-2zM-1701 214c-10-3-16-7-20-16-1-4-2-6-2-14 0-15 5-27 13-34 11-8 29-7 41 2 5 3 9 10 10 18v5l-8-1-9-1-2-4c-1-6-10-9-16-7-3 2-7 8-9 16-3 11 0 19 7 21 5 1 8 0 12-5l4-4 14 9-8 11c-6 5-18 7-27 4zM-1629 235c-28-9-33-11-33-12-1-1 2-10 5-19l5-18 9-27 7 1c26 8 43 14 43 16l-5 12-4-1-15-5-12-3-2 5c-1 5-2 5 9 8l7 2 10 3 1 1-4 12-14-4c-9-3-14-4-14-3l-2 6-1 5 15 6 15 5c1 1-5 14-6 14l-14-4z" style="fill:#fff;fill-opacity:1;fill-rule:evenodd;stroke:#fff;stroke-width:.82203281;stroke-linecap:round;stroke-miterlimit:4;stroke-dasharray:none;stroke-dashoffset:0;stroke-opacity:1" transform="translate(2296 458) scale(.87)"/>
  </g>
  <g transform="matrix(.24 0 0 .24 468 81)">
    <path d="M43 840h685v187H43Z" style="fill:#02402b;fill-opacity:1;stroke:#000;stroke-width:1;stroke-miterlimit:4;stroke-dasharray:none"/>
    <path d="M62 841h643v135c0 27 0 27-25 27H83c-21 0-21 0-21-20z" style="fill:#becda6;fill-opacity:1;stroke:#000;stroke-width:1;stroke-miterlimit:4;stroke-opacity:1"/>
    <path d="M62 894h226l27-28 28 29 42-42 42 42 29-29 30 28h219m23 0V633c1-71 5-159-8-237-12-70-41-128-96-195C542 93 386 36 386 36S229 93 147 201c-55 67-84 125-96 195-13 78-9 166-8 237v261" style="fill:#02402b;fill-opacity:1;stroke:#000;stroke-width:1px;stroke-linecap:butt;stroke-linejoin:miter;stroke-opacity:1"/>
    <path d="M120 603c0-55-5-126 6-188 9-56 34-110 78-163 65-86 183-134 183-134s118 48 183 134c44 53 69 107 78 163 11 62 6 133 5 188v208l-168-1-29 29-29-29-42 42-42-42-29 29-26-29-168 1V603z" style="fill:#becda6;fill-opacity:1;stroke:#000;stroke-width:.79272515px;stroke-linecap:butt;stroke-linejoin:miter;stroke-opacity:1"/>
    <path d="m869 830 79-208M1000 830l-79-208" style="fill:none;stroke:#000;stroke-width:8;stroke-linecap:butt;stroke-linejoin:miter;stroke-miterlimit:4;stroke-dasharray:none;stroke-opacity:1" transform="translate(-712 -71)"/>
    <path d="m329 853 14-14h1l14 14v1l-14 14h-1l-14-14v-1zM412 853l14-14h1l14 14v1l-14 14h-1l-14-14v-1z" style="fill:#becda6;fill-opacity:1;stroke:#000;stroke-width:1;stroke-miterlimit:4;stroke-dasharray:none;stroke-opacity:1"/>
    <path d="M62 830h214l25 24-25 23H62ZM705 830H491l-25 24 25 23h214z" style="fill:#becda6;fill-opacity:1;fill-rule:evenodd;stroke:#000;stroke-width:1;stroke-linecap:round;stroke-miterlimit:4;stroke-dashoffset:0;stroke-opacity:1"/>
    <path d="M65 738c-10 47-3 72 19 87 7 4 15-1 11-8l-14-20c0-2 1-2 1-1s11 18 19 16c5-1 7-7 6-14-6-19-26-39-42-60z" style="fill:#627a60;fill-opacity:1;stroke:none"/>
    <path d="M61 652c-5 19-10 64 12 67 5 1 8-7 6-13l-5-8h2s5 13 11 12c4 0 8-7 6-12-5-15-18-29-32-46zM106 702c4 19 9 58-12 62-4 1-9-6-7-12l5-9h-2s-4 6-8 6c-28-10 12-43 24-47zM61 572c-5 19-10 64 12 67 5 1 8-7 6-13l-5-8h2s5 13 11 12c4 0 8-7 6-12-5-15-18-30-32-46Z" style="fill:#617b60;fill-opacity:1;stroke:none"/>
    <path d="M106 622c4 19 9 58-12 62-4 1-9-6-7-12l5-9h-2s-4 6-8 6c-28-10 12-43 24-47zM61 485c-5 19-10 65 12 67 5 1 8-7 6-13l-5-8h2s5 13 11 12c4 0 8-7 6-12-5-15-18-29-32-46zM106 535c4 19 9 58-12 62-4 1-9-6-7-11l5-10h-2c0 1-4 6-8 6-28-10 12-43 24-47zM65 369c-5 24-14 82 11 83 9 1 5-18 2-24 0-2 1-2 1-1 0 0 5 16 11 14 22-11-17-62-25-72z" style="fill:#617b60;fill-opacity:1;stroke:none"/>
    <path d="M104 436c4 18 6 78-7 80-15 0-12-20-6-30l-2-1s-6 15-11 12c-23-12 11-57 26-61zM129 337c2 28-12 71-34 69-5-1-7-10-3-16 5-7 8-9 9-9 0-2-2-2-2-1 0 0-8 6-13 4-23-20 30-47 43-47zM130 255c5 28 1 82-17 82-8 0-4-18-4-19 0-2-1-1-1 1-1 0-2 28-14 23-27-13 26-84 36-87z" style="fill:#617b60;fill-opacity:1;stroke:none"/>
    <path d="M707 738c9 47 3 72-19 87-7 4-15-1-11-8l14-20c0-2-2-2-2-1s-10 18-18 16c-5-1-8-7-6-14 6-19 25-39 42-60z" style="fill:#627a60;fill-opacity:1;stroke:none"/>
    <path d="M711 652c5 19 10 64-12 67-5 1-8-7-6-13l4-8h-1s-6 13-11 12c-5 0-8-7-7-12 5-15 19-29 33-46zM666 702c-5 19-9 58 11 62 5 1 10-6 8-12l-5-9h1s5 6 9 6c28-10-13-43-24-47zM711 572c5 19 10 64-12 67-5 1-8-7-6-13l4-8h-1s-6 13-11 12c-5 0-8-7-7-12 5-15 19-30 33-46z" style="fill:#617b60;fill-opacity:1;stroke:none"/>
    <path d="M666 622c-5 19-9 58 11 62 5 1 10-6 8-12l-5-9h1s5 6 9 6c28-10-13-43-24-47zM711 485c5 19 10 65-12 67-5 1-8-7-6-13l4-8h-1s-6 13-11 12c-5 0-8-7-7-12 5-15 19-29 33-46zM666 535c-5 19-9 58 11 62 5 1 10-6 8-11l-5-10h1c0 1 5 6 9 6 28-10-13-43-24-47zM707 369c5 24 14 82-11 83-10 1-5-18-2-24 0-2-1-2-1-1 0 0-6 16-11 14-23-11 17-62 25-72z" style="fill:#617b60;fill-opacity:1;stroke:none"/>
    <path d="M668 436c-4 18-6 78 7 80 15 0 12-20 6-30l2-1s6 15 11 12c23-12-11-57-26-61zM643 337c-2 28 12 71 33 69 5-1 8-10 3-16-4-7-8-9-8-9 0-2 1-2 2-1 0 0 8 6 12 4 24-20-30-47-42-47zM642 255c-5 28-1 82 17 82 8 0 4-18 4-19 0-2 1-1 1 1 0 0 2 28 13 23 27-13-25-84-35-87z" style="fill:#617b60;fill-opacity:1;stroke:none"/>
    <path d="M369 171c0-17 36-17 36 0v640l-18 17-18-17z" style="fill:none;stroke:#000;stroke-width:8;stroke-miterlimit:4;stroke-dasharray:none;stroke-opacity:1"/>
    <path d="M1015 826a99 87 0 0 1-83 40 99 87 0 0 1-83-39" style="fill:#000;fill-opacity:1;stroke:none" transform="matrix(.95 0 0 1 -664 -70)"/>
    <path d="M223 770V557" style="fill:none;stroke:#000;stroke-width:8;stroke-linecap:butt;stroke-linejoin:miter;stroke-miterlimit:4;stroke-dasharray:none;stroke-opacity:1"/>
    <path d="m869 830 79-208M1000 830l-79-208" style="fill:none;stroke:#000;stroke-width:8;stroke-linecap:butt;stroke-linejoin:miter;stroke-miterlimit:4;stroke-dasharray:none;stroke-opacity:1" transform="translate(-382 -71)"/>
    <path d="M553 770V557" style="fill:none;stroke:#000;stroke-width:8;stroke-linecap:butt;stroke-linejoin:miter;stroke-miterlimit:4;stroke-dasharray:none;stroke-opacity:1"/>
    <path d="M6191 2128a814 814 0 0 1-19-35 598 598 0 0 0-44 1v-15l1-22v-7l-19-10-19-10a606 606 0 0 1 22-36l-2-6a1003 1003 0 0 0-21-32l19-10 19-10v-9a621 621 0 0 0-1-35 343 343 0 0 1 41 1h3l5-9 15-29 19 11 17 11 2-1a506 506 0 0 0 36-21 877 877 0 0 1 21 37 448 448 0 0 0 43-1v15l-1 22v7l20 10 19 10a9475 9475 0 0 1-23 37 455 455 0 0 0 23 36l-22 13-16 8v15l1 22 1 7h-10l-22-1h-13l-9 19-10 19-19-11-19-12-2 2a732 732 0 0 0-34 21l-2-2z" style="fill:#000;fill-opacity:1;stroke:none" transform="matrix(1.17 0 0 1.17 -6890 -1798)"/>
    <path d="m6751 1008-401 260-404-256-218 426-477-19 25 477-424 222 260 401-255 404 426 217-20 478 477-25 222 424 401-261 404 256 218-426 477 20-25-478 424-222-260-401 255-404-425-217 19-478-477 25zm-116 440 157 299 338-17-14 338 302 153-181 286 184 284-300 157 18 338-338-14-154 301-286-181-283 185-157-300-338 18 14-338-302-154 181-286-184-284 300-157-18-338 338 14 154-301 286 181z" style="fill:#fede11;fill-opacity:1;stroke:none" transform="matrix(.14 0 0 .14 -523 170)"/>
    <path d="m6973 1431 477-24-320 323-338 17zM5740 3594l-478 23 320-321 338-18zM6349 1267l401-259-116 439-284 184zM6364 3756l-400 261 113-439 283-186zM5730 1439l216-426 121 438-153 302zM7602 2506l259 401-439-116-184-284zM6985 3586l-217 425-120-437 153-302zM5276 1895l-23-478 322 322 15 338zM7437 3126l25 477-323-318-19-338zM5114 2519l-262-399 441 113 185 283zM5281 3141l-425-218 438-119 302 154zM7430 1885l426 216-438 121-302-153z" style="fill:#ffa700;fill-opacity:1;stroke:none" transform="matrix(.14 0 0 .14 -523 170)"/>
    <path d="M1015 826a99 87 0 0 1-83 40 99 87 0 0 1-83-39" style="fill:#000;fill-opacity:1;stroke:none" transform="matrix(.95 0 0 1 -334 -70)"/>
    <g style="fill:#fede11;fill-opacity:1">
      <path d="M297 48s156 122 41 297c108-66 117-248-41-297zM209 30c-25 28-68 1-53-30 26 46 53 9 53 9s27 37 53-9c14 31-28 58-53 30z" style="fill:#fede11;fill-opacity:1" transform="matrix(.48 0 0 .48 288 428)"/>
      <path d="m209 410-18-23s-42 14-97-5c45 0 70-8 80-13 0 0-103-55-101-168 6-114 67-149 67-149S32 210 190 341l-7-163V59c9-2 26-21 26-21s16 19 25 21v119l-7 163c159-131 51-289 51-289s61 35 67 149c2 113-101 168-101 168 9 5 35 13 80 13-55 19-97 5-97 5z" style="fill:#fede11;fill-opacity:1" transform="matrix(.48 0 0 .48 288 428)"/>
      <path d="M121 48S-35 170 80 345C-28 279-38 98 121 48Z" style="fill:#fede11;fill-opacity:1" transform="matrix(.48 0 0 .48 288 428)"/>
    </g>
    <ellipse cx="1094.4" cy="243.9" rx="26.4" ry="11" style="fill:#becda6;fill-opacity:1;stroke:#000;stroke-width:9.43823624;stroke-linecap:round;stroke-miterlimit:4;stroke-dasharray:none;stroke-dashoffset:0;stroke-opacity:1" transform="matrix(.87 0 0 .82 -567 -22)"/>
    <path d="M1121 301c8-6 22 13 13 20l-38 27-39-27c-9-7 6-26 14-20l25 17z" style="fill:#becda6;fill-opacity:1;stroke:#000;stroke-width:8;stroke-linecap:butt;stroke-linejoin:miter;stroke-miterlimit:4;stroke-dasharray:none;stroke-opacity:1" transform="translate(-709 -71)"/>
    <path d="m1066 311 9 8 8-9M1127 311l-9 8-9-9" style="fill:none;stroke:#000;stroke-width:6;stroke-linecap:butt;stroke-linejoin:miter;stroke-miterlimit:4;stroke-dasharray:none;stroke-opacity:1" transform="translate(-709 -71)"/>
    <path d="m404 216-17 13-18-13M404 197l-17 13-18-13" style="fill:none;stroke:#000;stroke-width:6;stroke-linecap:butt;stroke-linejoin:miter;stroke-miterlimit:4;stroke-dasharray:none;stroke-opacity:1"/>
    <path d="M-479-1260c-7-3-3-11 7-16 17-8 49-30 49-34 0-1-6-3-14-4-18-2-26-10-26-27s5-34 12-44c6-8 9-9 18-9 12 0 20 7 25 22l3 9h24c18 0 25-1 26-4 0-2-7-11-17-20l-18-17 3-17 3-18 41-14 42-13-1 11c-4 29-2 27-22 33l-22 6c-5 0-4 1 5 15 11 18 14 35 9 53-6 25-18 33-50 33h-22v8c0 11-9 34-16 42-6 6-9 7-31 6l-28-1zm55-90c2-4-7-12-14-12-8 0-12 8-6 12 5 3 18 3 20 0zM-626-1260l-4-4c-1-5 0-6 13-13l13-8 15-9c7-4 20-15 20-18l-12-2c-10 0-13 0-17-3-4-2-6-3-8-7-3-5-3-6-3-20 1-12 1-16 3-22 4-15 10-25 18-28l9-2c7 0 13 3 17 8 4 4 10 17 11 23l1 4h17c19 0 21-1 19-5 0-2-4-7-9-12l-9-10 4-8 5-7 4-6 6-7 3-4c2 0 9 11 12 19 4 11 5 18 5 35 0 29-4 40-19 48-5 2-13 4-26 4h-11v3a2528 2528 0 0 0-4 21l-4 11c-3 8-7 14-11 17-2 2-3 2-29 2h-29zm55-91c2-1 2-2 0-4-3-4-7-6-13-6-4 0-5 0-7 2-3 2-2 6 1 8s16 2 19 0zM-528-1444l-7-8 7-9c6-6 7-7 9-6l9 8 8 6-9 9-9 8-8-8zM-656-1315c-3-2-6-8-8-18l-14-89-1-11 7-9a757 757 0 0 1 28-27l1 5c4 17 4 28 5 65l-1 48c-4 19-7 30-12 35-4 3-3 3-5 1z" style="fill:#fede11;fill-opacity:1;fill-rule:evenodd;stroke:none" transform="rotate(42 -426 799) scale(.23)"/>
    <path d="M-879-1260c-7-2-7-10 0-13a268 268 0 0 0 30-17c14-8 27-19 27-22l-12-2c-11 0-13 0-18-3-4-2-6-3-8-8-3-5-3-5-3-18l2-20a55 55 0 0 1 8-20c0-2 8-10 11-12 4-1 14-1 18 1 9 3 15 13 19 29l1 4 26-1c28 0 32-1 35-4 3-5 2-5-16-5-16 0-17 0-22-3-3-2-5-3-7-7-2-3-2-5-1-14 0-12 2-17 9-28 5-9 9-12 17-13 5 0 7 0 12 2s6 3 11 8a93 93 0 0 1 14 36l1 3 1 12-1 13-1 2c0 6-5 18-8 24-11 16-25 22-54 22h-15l-1 7c-1 16-8 35-16 43l-3 4h-56zm54-91c5-3-4-10-13-10-8 0-13 7-6 10 4 2 17 2 19 0zm74-45c7-2-2-11-11-11-7 0-12 8-6 10l17 1zM-781-1458l-7-7c0-1 12-13 14-13 0 0 4 2 7 6l6 5 6-6 7-7 7 7 7 8-14 13c-1 1-3-2-6-5l-7-5-7 5c-3 3-5 6-6 5 0 0-4-2-7-6zM-911-1315c-3-4-7-20-12-55l-3-15-4-23-3-23 5-8 10-11c8-10 19-20 20-19l5 30c1 20 2 67 1 79-2 21-7 38-12 44-4 3-5 3-7 1zM-1175-1263c-14-1-24-6-32-13-10-11-14-26-10-46l7-24a2964 2964 0 0 0 9-8c6 0 7 5 5 19-2 10-2 10 0 14 1 4 3 6 6 8l7 3 3 2 23 2c10 0 24-1 24-3h1c4 0 12-5 14-8 4-6 1-11-11-23l-8-7 7-12 8-16 2-5 8 7c11 10 14 12 26 12 15 0 19-2 22-14 3-9 5-11 9-11 3 0 5 2 6 8 2 9 4 12 8 15 3 2 5 2 14 2 11-1 11-1 13-3l3-6c0-6 3-15 7-20 10-14 36-13 47 1 7 10 12 26 12 41 0 11-2 16-8 24s-12 10-22 10-15-2-23-10l-6-6-2 4c-2 4-4 7-9 10-2 1-4 2-12 2-13 0-18-3-24-10l-3-4-4 5c-7 7-9 8-23 9-9 0-11 0-13-2l-3-1-1 7-5 21-3 3c-2 7-12 15-21 19-12 5-31 7-48 4zm212-84c2-2 3-3 3-8 0-6-3-14-6-19-3-3-8-6-10-5-4 2-6 5-6 10 0 16 12 29 19 22z" style="fill:#fede11;fill-opacity:1;fill-rule:evenodd;stroke:none" transform="matrix(.2 .12 -.12 .2 502 500)"/>
    <path d="m-1077-1275-6-7 2-3 7-8 4-3 4 3 7 6 2 4 7-7c7-7 6-7 15 2l6 6-7 7c-3 4-7 7-8 7l-6-6-6-6-7 6-6 6-8-7zM-1172-1384c-4-3-7-7-7-8l14-16c1 0 5 3 9 8l8 8-7 8-9 7c-1 0-5-3-8-7z" style="fill:#fede11;fill-opacity:1;fill-rule:evenodd;stroke:none" transform="matrix(.2 .12 -.12 .2 502 500)"/>
    <path d="M-1319-1314c-6-2-12-5-17-10l-6-5-5 5-10 7c-5 3-6 3-13 3-13-1-20-6-26-18l-3-6-4 3-5 5c-9 4-35-4-41-13-4-6-3-16 4-26 3-5 14-13 26-19 8-4 7-3 6-10-1-2 21-25 22-23l6 25 6 27c4 8 15 10 21 5 3-2 3-4 3-8 1-4 0-16-1-29-2-32-3-28 6-34a2946 2946 0 0 0 22-13l2 36c0 31 0 37 2 41 2 8 6 11 13 11 5 1 6 1 9-3l4-3-1-13c-1-13-3-28-7-44-3-11-3-9 5-18 13-15 19-20 19-16l1 2 6 12 8 18c5 12 5 14-3 12h-5l2 29c1 30 1 38-3 48-6 17-23 25-43 22zm-84-47-4-15c-2-2-15 3-19 7s-2 6 6 8h17zM-1360-1449c-4-2-6-5-5-14 0-5 1-6 5-7l3-1v6c-1 5 1 7 5 5 2-1 3-3 5-11 1-4 2-4 5-5l4-1v5c0 3 0 4 2 5 4 2 7-1 7-7 0-5 0-5 4-6l4-1-1 7c0 9-3 16-7 18-3 1-8 1-11-1-3-1-3-1-4 2l-4 5c-3 2-9 3-12 1zM-1347-1485l-1-12-1-7 4-6 4-5v3c1 3 2 19 1 24-1 4-4 8-6 8l-1-5z" style="fill:#fede11;fill-opacity:1;fill-rule:evenodd;stroke:none" transform="matrix(.27 0 0 .27 742 450)"/>
    <path d="M-1652-1278c-6-2-11-6-16-11-5-6-11-17-11-21s-1-4-15-4c-10-1-13-1-16-3-5-3-13-11-17-17l-3-5-4 5c-5 8-14 17-19 20-9 4-24 4-33 0-12-6-18-24-14-47 2-10 5-15 9-15 4-1 6 1 8 8 2 6 3 7 9 12h22l5-2 5-3c2-2 2-3 0-6a404 404 0 0 0-16-40 32479 32479 0 0 0 25-24l7 17a235 235 0 0 0 11 31c7 20 9 22 25 22h12v-4c2-8 11-23 19-29 8-5 13-8 21-8 6 0 7 1 11 3 5 4 8 9 8 15a44 44 0 0 1-7 22l11 1c16 1 17 0 21-12 1-6 5-10 7-10 3 0 5 3 7 10l3 8c4 4 10 6 15 4 3-2 4-4 6-11l2-8c1-2 4-4 7-3 2 1 3 3 5 12 2 8 5 11 12 11 6 1 6 1 9-2s3-5 0-13l-2-6c-1-1 2-5 7-10 5-6 7-7 8-6l1 3v1l3 7c3 13 2 38-2 45l-3 8c-3 7-8 15-13 17-7 4-20 1-25-7l-3-4c-1 0-3 2-4 5-5 6-8 8-14 8-8 0-14-4-18-10l-2-4-4 5c-5 8-7 9-22 9-12 0-14 0-11 3 4 3 6 17 3 23-1 4-5 8-9 10s-17 1-21 0zm11-24c3-3 2-7-2-11-2-2-3-2-12-2h-11l3 4 7 8c5 4 12 4 15 1zm0-60c3-3 3-9 1-11l-5-2c-6-1-12 2-16 9l-4 6h11c10 0 10 0 13-2zM-1569-1419l-7-8c0-2 11-13 13-13l7 6 7 6 4-4 6-6 3-2 7 6 6 7c0 2-11 13-13 13l-7-6-6-5-4 3-6 6-3 3-7-6z" style="fill:#fede11;fill-opacity:1;fill-rule:evenodd;stroke:none" transform="matrix(.2 -.12 .12 .2 829 193)"/>
    <path d="m-1556-1443-6-8c0-1 11-13 13-13l13 13c0 2-12 14-13 14l-7-6zM-1833-1315l-3-8a844 844 0 0 1-16-91l-3-19 7-8 11-11c5-7 16-18 17-18a194 194 0 0 1 7 51 437 437 0 0 1-1 62c0 5-5 26-8 32-2 6-6 12-8 12l-3-2zM-1935-1320c1-8 1-8 5-12l8-6c4-2 4-4 1-4-2 0-5-3-8-8-5-9 1-28 12-39 6-6 11-7 19-7 11 1 22 10 23 18 0 4 0 4-13 3-6-1-9-1-13 1-17 4-14 19 3 19l8-1 23-8-2 12-1 11-8 2a232 232 0 0 0-57 27v-8z" style="fill:#fede11;fill-opacity:1;fill-rule:evenodd;stroke:none" transform="matrix(.2 -.12 .12 .2 829 193)"/>
    <g style="fill:#fede11;fill-opacity:1">
      <path d="M-2049-1315c-11-3-18-8-23-18-3-7-3-8-4-49-1-30-3-54-4-59 0-2 0-3 3-6a112 112 0 0 1 22-16l11-7 1 50c0 54 0 54 6 57 2 1 6 2 18 2 14 0 16 0 17-2 1-3-2-7-11-16l-8-9 9-14 7-9 6-9c2 0 9 10 12 18 5 12 6 21 5 40 0 23-3 32-12 39-7 7-12 8-33 8h-22zM-2012-1274l-8-7 2-3 8-8 7-6 8 8 8 8-8 8-8 8-9-8zM-2446-1316c-7-1-14-4-14-5l-1-1c-2 0-15-9-20-13-13-11-18-19-14-23l20-1 19-1a254 254 0 0 0-12-75l-4-11 4-4 7-6a325 325 0 0 0 20-16l10 20 5 10 5 14c0 1 0 2-5 1h-4v12c0 13-2 26-6 37-2 7-1 7 7-2l27-23c6-5 16-8 25-10 10-1 21 4 25 14 3 5 3 6 3 15l-2 15c-2 4-2 6-1 7 2 1 19 2 22 0 4-1 5-3 7-11l5-10c3-3 4-3 7 0 3 2 4 4 5 10 2 9 4 12 10 12 6 1 9-2 11-12 3-9 4-11 8-11s6 2 7 11c3 10 5 12 11 12 5 0 8-3 9-9l1-5 1-4c2-5 6-7 10-3l4 8c3 12 5 14 19 13h8l-1-4c-4-9 0-26 7-36 11-14 21-19 33-16 8 2 15 13 17 26 0 8-1 19-4 25l-3 5h12c13 0 18-2 19-6l-3-24-3-15-6-27-3-13 7-6a236 236 0 0 1 23-20l13 26 4 8 3 10c0 2 0 2-5 1h-6v11c2 28 2 67 1 73-3 13-10 23-19 27-4 1-7 2-21 2-19 0-22-1-33-9l-6-5-8 5c-10 7-16 9-28 9s-15-2-21-9l-5-5-5 6c-5 5-7 7-10 7-7 2-13-1-18-9l-3-4-6 6c-3 4-7 7-8 7-7 2-15-2-19-9l-3-4-4 5c-6 7-10 9-21 9-13 0-18-2-25-9l-7-9-2-4-6 4c-3 2-8 6-12 7l-7 4a91 91 0 0 1-47 5zm50-46c14-3 17-5 16-12-1-6-10-10-19-7-6 1-16 6-21 11l-7 6c-3 3-3 3-2 4 3 1 25 0 33-2zm223-7c4-3 6-5 6-8 0-8-17-11-25-4-4 3-3 7 4 12 5 2 10 3 15 0z" style="fill:#fede11;fill-opacity:1;fill-rule:evenodd;stroke:none" transform="rotate(-48 438 -873) scale(.23)"/>
      <path d="m-2202-1440-7-7 13-13 8 6 6 5 6-5c3-4 6-6 7-6s13 12 13 14l-13 13-7-6-6-6-6 6-7 6-7-7z" style="fill:#fede11;fill-opacity:1;fill-rule:evenodd;stroke:none" transform="rotate(-48 438 -873) scale(.23)"/>
    </g>
    <path d="M-1812-646c-2-1-4-12-6-27-5-50-10-69-21-95l-5-11 10-21c6-11 12-20 14-20 4 0 15 24 19 42 6 26 8 60 5 89-3 38-7 49-16 43zM-1729-648c-3-3-4-12-7-37-5-46-12-67-26-86-3-3-4-7-4-8l22-44 9 10c13 20 28 20 33 2 4-13 12-13 15 0 2 8 6 13 12 13s10-3 15-15c2-5 4-8 7-8 13 0 5 53-10 66-5 4-19 6-27 3-5-1-7-1-13 2l-6 4 1 24c2 31-4 65-12 74-4 4-5 4-9 0zM-1580-650c-2-3-5-14-7-26-8-33-19-62-34-85l-8-13 4-17c5-20 10-32 12-32a165 165 0 0 1 33 65l6 20 4-8 3-10c0-4 14-33 20-43 10-14 18-22 20-22 3 0 13 48 10 52 0 2-5 7-9 12-16 20-29 51-37 87l-6 22c-3 5-9 4-11-2zM-1478-698l-17-17 9-10 18-18 8-7 16 17 17 17-17 18-17 17z" style="fill:#000;fill-opacity:1;fill-rule:evenodd;stroke:none" transform="matrix(.2 0 0 .2 712 1067)"/>
    <g aria-label="فرماندهی انتظامی جمهوری اسلامی ایران" style="font-style:normal;font-variant:normal;font-weight:400;font-stretch:normal;font-size:41.01623917px;line-height:1.25;font-family:&quot;Segoe UI&quot;;-inkscape-font-specification:&quot;Segoe UI, Normal&quot;;font-variant-ligatures:normal;font-variant-caps:normal;font-variant-numeric:normal;font-feature-settings:normal;text-align:start;letter-spacing:0;word-spacing:0;writing-mode:lr-tb;text-anchor:start;fill:#000;fill-opacity:1;stroke:none;stroke-width:4.10162449">
      <path d="M684 968q0 12-11 12h-3v-9h3l7-1 1-1h-4q-6 0-6-4 0-3 2-5 1-4 4-4 4 0 6 5l1 7zm-5-4-1-1-1-1h-1l-1 1 2 1h2zm1-13-3 3-3-3 2-3h1z" style="font-style:normal;font-variant:normal;font-weight:400;font-stretch:normal;font-family:&quot;B Titr&quot;;-inkscape-font-specification:&quot;B Titr&quot;;stroke-width:4.10162449"/>
      <path d="M671 980h-2v1l-2 5-2 4h-11l-1-1 1-1 6-4q5-3 5-5l-4-5 3-7h1l2 3 4 1zM651 974l-2 4q-1 2-4 2t-5-3q-2 3-4 3h-1v-9q3 0 3-2l1-3q2-3 5-3 4 0 6 4l1 7zm-3-2-1-3-2-1h-1v1l1 3q0 2 2 2l1-2z" style="font-style:normal;font-variant:normal;font-weight:400;font-stretch:normal;font-family:&quot;B Titr&quot;;-inkscape-font-specification:&quot;B Titr&quot;;stroke-width:4.10162449"/>
      <path d="M636 980h-2q-8 0-8-8v-18l6-4h1v18q0 3 2 3h1zM623 969q0 6-2 8-1 3-6 3h-2v-9h5l1-1-1-1-3-3v-1l4-5h1q3 4 3 9zm-2-16v1l-3 2h-1l-2-2v-1l2-3h1z" style="font-style:normal;font-variant:normal;font-weight:400;font-stretch:normal;font-family:&quot;B Titr&quot;;-inkscape-font-specification:&quot;B Titr&quot;;stroke-width:4.10162449"/>
      <path d="M614 980h-2q-3 0-6-5l-3 4-4 2q-7 0-7-8l1-3 1-2 2 1 1 2 3 1h2l2-2-3-8 4-4 1-1v1l4 10q1 3 3 3h1zM590 973l-1 4q-2 3-4 3l-6-3q-3 3-5 3h-4v-9h3l-1-2q0-3 2-3l-1-1 3-6v-1h2l8 6q4 4 4 9zm-4 0-3-3-1 3 1 1 2 1 1-2zm-6-4-1-1-1-1-2 1v1l1 1 1 1 1-1 1-1z" style="font-style:normal;font-variant:normal;font-weight:400;font-stretch:normal;font-family:&quot;B Titr&quot;;-inkscape-font-specification:&quot;B Titr&quot;;stroke-width:4.10162449"/>
      <path d="M571 980h-1l-1-1-2-2-6-1-3 1h-1l3 1h5q2 1 2 4 0 8-14 8-8 0-10-4-2-2-2-6l1-5q1-4 3-4l1 2v4q0 6 10 6l8-1 1-1h-5l-4-1q-2 0-2-2 0-4 6-6l9-1h2zM531 970l-1 4-1 4-2 2-1-2-4-21 6-6 1-1 1 10 1 10zM520 969q0 6-2 8-2 3-7 3h-1v-9h4l2-1-1-1-3-3v-1l4-5h1q3 4 3 9zm-2-16v1l-3 2h-1l-2-2v-1l2-3h1z" style="font-style:normal;font-variant:normal;font-weight:400;font-stretch:normal;font-family:&quot;B Titr&quot;;-inkscape-font-specification:&quot;B Titr&quot;;stroke-width:4.10162449"/>
      <path d="M511 980h-1q-3 0-5-3-1 3-5 3h-2v-9h2l3-1v-3l2-1 1 1 1 3 3 1h1zm-1-22-3 3-2-2-3 2-2-2v-1l2-2q0-1 0 0l3 2 2-2q0-1 0 0z" style="font-style:normal;font-variant:normal;font-weight:400;font-stretch:normal;font-family:&quot;B Titr&quot;;-inkscape-font-specification:&quot;B Titr&quot;;stroke-width:4.10162449"/>
      <path d="M499 980h-1q-4 0-6-4-4 4-13 4h-7v-9h4q0-10-3-16l6-5v-1l1 1 3 7v1h-1v2q0 5-2 9 7-8 12-8l4 1 1 4-1 4 2 1h1zm-8-11q0-2-3-2-2 0-6 4h1l6-1 2-1zm1-15v1l-2 3h-1l-3-3v-1l3-2h1z" style="font-style:normal;font-variant:normal;font-weight:400;font-stretch:normal;font-family:&quot;B Titr&quot;;-inkscape-font-specification:&quot;B Titr&quot;;stroke-width:4.10162449"/>
      <path d="M473 980h-2q-7 0-7-8v-9l-1-7v-2l6-4h1v18q0 3 3 3zM461 974l-2 4-4 2q-4 0-6-3-1 3-4 3h-1v-9h1q2 0 2-2l2-3q1-3 4-3 4 0 6 4 2 3 2 7zm-4-2v-3l-2-1h-1l-1 1 1 3 2 2 1-2z" style="font-style:normal;font-variant:normal;font-weight:400;font-stretch:normal;font-family:&quot;B Titr&quot;;-inkscape-font-specification:&quot;B Titr&quot;;stroke-width:4.10162449"/>
      <path d="M445 980h-1l-1-1-2-2-6-1-3 1h-1l3 1h5q2 1 2 4 0 8-13 8-8 0-11-4-2-2-2-6l1-5q1-4 3-4l1 2v4q0 6 10 6l8-1 1-1h-5l-4-1q-2 0-2-2 0-4 6-6l9-1h2zM404 968l-2 5-5 1-4 2-3 3-7 1h-3v-9h4l9-1-4-2-3-1-2 1-1 1-1-1 2-5q2-3 5-3l5 2 5 3 5 1 1 1-1 1zm-8 18v1l-2 2h-1l-3-2v-1l3-3z" style="font-style:normal;font-variant:normal;font-weight:400;font-stretch:normal;font-family:&quot;B Titr&quot;;-inkscape-font-specification:&quot;B Titr&quot;;stroke-width:4.10162449"/>
      <path d="M381 980h-1l-2-1-2-2q-1 3-4 3-4 0-6-3-1 3-3 3h-2v-9h1q2 0 3-2l1-3q1-3 5-3l4 2 2 4 2 2h2zm-7-8v-3l-2-1h-1l-1 1 1 3 2 2 1-2z" style="font-style:normal;font-variant:normal;font-weight:400;font-stretch:normal;font-family:&quot;B Titr&quot;;-inkscape-font-specification:&quot;B Titr&quot;;stroke-width:4.10162449"/>
      <path d="M363 980h-4l1 3-1 3-3 1q-3 0-5-2l-2-5h-3v-9h3q0-3 2-5 3-3 6-3l3 1 1 2q0 3-2 5h4zm-6-11-2-1q-2 0-3 3h4l1-2zm0 13-1-2h-4q1 3 3 3l2-1z" style="font-style:normal;font-variant:normal;font-weight:400;font-stretch:normal;font-family:&quot;B Titr&quot;;-inkscape-font-specification:&quot;B Titr&quot;;stroke-width:4.10162449"/>
      <path d="M347 980h-2q-1 7-4 10h-10l-2-1 1-1 6-4 5-4h-5q-3-1-3-5l1-7q2-4 5-4 4 0 6 7h2zm-6-7-1-2h-2l-1 1 2 1h2zM328 978q0 8-4 12h-11l-2-1 1-1 7-4q5-3 5-5l-5-5 3-7h1l3 4q2 3 2 7zM310 978q0 12-16 12-12 0-12-10l1-5q1-5 3-5l1 2v4q0 6 9 6l10-2v-1h-1l-6-1q-4-1-4-3l2-8q3-5 7-5l4 2 2 4-1 2-2-1h-3l-4 1-1 1 3 1 4 1q4 0 4 5zM272 970l-1 4-1 4-2 2-1-2-4-21 7-6v-1h1l1 10v10zM261 969l-1 7q-1 4-4 4t-4-3q-1 3-4 3-2 0-3-3-2 3-4 3h-2v-9h2l2-1v-2l2-1 1 1 1 2 2 1 1-1 1-2 1-1 1 1 1 2 2 1 2-1-1-2v-1l2-3h1l1 5z" style="font-style:normal;font-variant:normal;font-weight:400;font-stretch:normal;font-family:&quot;B Titr&quot;;-inkscape-font-specification:&quot;B Titr&quot;;stroke-width:4.10162449"/>
      <path d="M241 980h-3q-3 0-4-2l-1-8-3 5-2 5h-6l-4 1-1-1 1-2q5-3 8-7v-1l-2-5-3-4-1 1-4-5v-1l1-6 2-1 1 1q4 3 6 9 3 5 3 8l6-16 2-1 1 1v9l-1 6q0 5 2 5h2zM214 974l-1 4q-2 2-5 2t-5-3q-1 3-4 3h-1v-9h1q2 0 2-2l1-3q2-3 5-3 4 0 6 4l1 7zm-3-2-1-3-2-1h-1v1l1 3 2 2 1-2z" style="font-style:normal;font-variant:normal;font-weight:400;font-stretch:normal;font-family:&quot;B Titr&quot;;-inkscape-font-specification:&quot;B Titr&quot;;stroke-width:4.10162449"/>
      <path d="M199 980h-1l-1-1-3-2-5-1-3 1h-1l2 1h5q3 1 3 4 0 8-14 8-8 0-11-4l-1-6 1-5 2-4q2 0 2 2v4q0 6 9 6l8-1 2-1h-5l-4-1q-2 0-2-2 0-4 6-6l9-1h2zM158 970v4l-1 4-2 2-1-2-4-21 6-6 1-1 1 10v10zM146 969l-1 8q-2 3-7 3h-2v-9h5l1-1v-1l-4-3v-1l4-5h1q3 4 3 9zm2 17-3 3-2-2-3 2-2-3q-1 0 0 0l2-2q0-1 0 0l3 2 2-2q0-1 0 0z" style="font-style:normal;font-variant:normal;font-weight:400;font-stretch:normal;font-family:&quot;B Titr&quot;;-inkscape-font-specification:&quot;B Titr&quot;;stroke-width:4.10162449"/>
      <path d="M137 980h-2v1l-1 5-3 4h-10l-2-1 1-1 6-4q5-3 5-5l-4-5 3-7h1l2 3 4 1zM117 970v4l-1 4-2 2-1-2-4-21 6-6 1-1 1 10v10zM107 977q0 8-4 11-3 2-9 2-5 0-8-2t-3-7v-5q1-4 3-4l1 2v3q0 4 8 4t8-3l-2-2-3-3 4-6v-1h1l2 4 2 7zm-11-12-2 3h-1l-3-3v-1l3-2z" style="font-style:normal;font-variant:normal;font-weight:400;font-stretch:normal;font-family:&quot;B Titr&quot;;-inkscape-font-specification:&quot;B Titr&quot;;stroke-width:4.10162449"/>
    </g>
  </g>
  <g style="stroke:none">
    <path d="M2588 1378c-1-2 22-25 25-25l1-2 6-7 14-13a211 211 0 0 1 118-57c15-3 38-11 45-17 4-4 8-4 7 0l-9 13-10 17a174 174 0 0 1-91 63c-10 5-39 13-53 15-18 3-25 4-26 6l-6 2-9 2c-6 4-10 5-12 3zM2734 1255c-1-1 28-24 32-24l2-2 3-3 9-5 6-5 10-4 8-4c0-2 2-2 4-2l7-3 6-3 9-3c3-2 8-3 10-3s7-1 10-3l11-3 14-2 40-3a133 133 0 0 0 49-8c3 0 3 1 1 4l-4 4c-2 0-3 1-3 3l-2 2-10 9c-4 5-9 9-11 9l-2 2-5 4-7 3c-2 3-34 19-46 23-16 5-41 9-95 14a3179 3179 0 0 0-46 3z" style="fill:#f60;fill-opacity:1;stroke:none" transform="matrix(.5 0 0 .5 -733 813)"/>
    <path d="M2589 1359a146 146 0 0 1 73-84l31-16 13-14 12-11v39l-10 3a160 160 0 0 0-50 24c-14 9-15 10-29 23l-13 11-14 14c-7 8-13 13-13 11zM2739 1233a146 146 0 0 1 29-29 139 139 0 0 1 48-29l13-6a218 218 0 0 0 65-30c2 0-3 17-10 30-4 8-6 10-12 11-24 3-47 10-70 21l-13 5-2 1-12 7-23 13c-11 8-13 9-13 6zM2912 1155l6-3 19-11a174 174 0 0 1 52-25l13-5c24-7 36-9 60-9 17 0 24-1 23-2-1-2 26-29 29-29l7-5a340 340 0 0 1 63-40c14-6 26-10 44-14 11-2 18-4 18-5 0-2 1-3 2-3l2-4 2-7 8-14 8-12 3-3c0-2 5-8 11-15l2-3 8-10c19-17 30-26 40-31a202 202 0 0 1 40-16l17-8c14-7 16-8 18-14 1-2 2-5 4-5s2 10 0 17c-2 3-3 10-4 17s-4 14-8 21a145 145 0 0 1-54 49 420 420 0 0 1-64 30l-15 6c-10 4-9 7 3 5 15-1 25-4 35-9l10-2c1 0 1 1-1 2l-2 3c0 2-1 3-2 3l-3 6c-2 4-7 9-19 21l-6 6c-4 6-33 24-53 31-17 7-22 9-36 12a594 594 0 0 1-87 14l-6 2-8 3c-3 3-1 3 19 3l31-2c15-4 16-4 16-2a146 146 0 0 1-32 27c-5 4-33 18-45 22-21 6-45 9-77 10-96 2-95 2-91-2z" style="fill:#f60;fill-opacity:1;stroke:none" transform="matrix(.5 0 0 .5 -733 813)"/>
    <path d="m2925 1133 5-7 10-8c2-3 4-4 5-4l9-6 9-6 6-4 14-7 16-5c7-3 22-7 33-9 14-2 47-15 48-20 2-3 6-1 6 3s-5 16-8 17l-1 3c0 5-8 12-14 12a300 300 0 0 0-82 17l-23 10c-3 0-15 6-21 10-7 4-12 6-12 4zM3200 1019h2c2 1 2 2 0 2s-2 0-2-2zM3094 1068c3-6 14-22 16-22l1-2c0-2 13-15 25-24 12-8 33-20 45-24 16-4 31-13 39-21 6-5 9-7 10-6 1 2-2 33-4 34l-18 5c-9 2-25 8-35 13a159 159 0 0 1-21 10l-11 7-15 11a308 308 0 0 1-28 22c-4 4-6 3-4-3zM3239 985l4-22 12-30 8-10 10-13 11-9 9-8c7-3 28-23 33-32 2-6 5-10 6-9 3 3 6 15 7 28 1 10 1 13-2 13-4 0-27 12-34 18-13 12-25 25-36 41l-9 12c-3 2-5 6-5 7l-1 3-8 13-6 12zM3371 876c-2-2-3-5-2-13 3-20 7-44 10-50a26183 26183 0 0 1 19-40l4-3c2 0 3-3 4-6s2-5 4-5l3-3c0-2 1-3 3-3l2-2 6-4 12-8 11-8c8-6 19-17 22-23 4-7 6-6 9 3 3 11 2 48-2 52l-2 5c0 3-7 19-11 23l-2 4-9 10-14 14-13 9a184 184 0 0 0-51 46c0 2-2 3-3 2zM3357 847c0-2-1-7-3-10-4-10-4-45 0-55 7-16 10-21 16-29 11-16 18-31 18-40l1-8c3 0 18 22 18 26l2 5c2 2 2 9 0 9l-3 4-4 4c-2 0-3 1-3 3l-2 3c-2 0-9 7-9 10l-5 8c-9 11-18 39-20 58 0 6-2 13-3 14-2 2-3 1-3-2zM3436 725l-3-8c-5-10-13-44-14-60-1-13 0-19 3-30 5-18 8-26 12-32l4-7 1-2 7-9c3-5 6-8 7-8l2-3c0-2 1-3 2-3 3 0 9-17 9-24 0-5 1-7 3-6a109 109 0 0 1 18 37c3 2 6 33 5 44l-5 21c-4 12-15 33-17 33l-2 3c0 3-9 19-12 20l-1 3c0 2-1 3-2 3s-3 2-4 5c-3 10-13 26-13 23z" style="fill:#f60;fill-opacity:1;stroke:none" transform="matrix(.5 0 0 .5 -733 813)"/>
    <path d="m3413 708-7-15-3-7c-1 0-9-17-11-26 0-3-2-6-3-6-2-2-2-36 2-46 3-11 3-34 0-43l-1-7c2-2 17 10 17 14l2 2c2 0 9 7 9 10l2 2 2 4c0 2-1 3-2 3l-2 4-1 5-6 13a149 149 0 0 0 7 92l3 9c-1 0-5-3-8-8zM3421 550c-2-2-3-7-3-9l-3-13c-5-13-4-63 1-77a123 123 0 0 1 22-38c0-2 3-6 8-11 5-4 9-9 9-10l1-2c3-1 10-17 10-22 0-3 1-5 2-5 3 0 11 17 13 25l3 8a143 143 0 0 1 2 54 463 463 0 0 0-12 31 121 121 0 0 1-25 34c0 2-7 13-10 15l-7 13-8 12-3-5z" style="fill:#f60;fill-opacity:1;stroke:none" transform="matrix(.5 0 0 .5 -733 813)"/>
    <path d="m3409 541-3-8-3-7-12-20-9-20v-23c0-15 1-26 3-33 3-11 4-31 1-33s-3-9-1-9c4 0 19 13 24 21 5 6 6 9 4 15 0 3-2 7-3 8-7 2-7 81 0 98 3 8 3 16-1 11zM3427 376a246 246 0 0 1-19-28l-1-7-3-13-7-25c-4-17-4-18-1-34l6-21c3-4 8-47 6-55-1-6 3-7 9-1l10 9a143 143 0 0 1 25 41c5 8 5 47-1 66a822 822 0 0 0-13 64c0 15-3 16-11 4z" style="fill:#f60;fill-opacity:1;stroke:none" transform="matrix(.5 0 0 .5 -733 813)"/>
    <path d="M3405 370a857 857 0 0 0-31-33l-2-3-5-9-6-12-4-25c-2-21-4-27-12-39-3-6-3-7 0-7 5 0 25 6 35 10 7 4 8 4 7 9-5 19-6 31-2 45a161 161 0 0 0 17 44c2 1 4 6 5 11l4 9c2 1 2 5 0 5-1 0-4-2-6-5zM3374 204l-1-5c-4-2-10-26-12-46a151 151 0 0 1 10-74c2-1 4-5 4-8l3-5 14-19c12-17 14-20 14-31 1-9 2-12 4-11 4 0 19 30 22 43s3 37 0 40l-2 6c0 3-9 24-14 31l-4 8-3 6c-1 0-2 1-2 4s-3 11-6 13a218 218 0 0 0-27 48z" style="fill:#f60;fill-opacity:1;stroke:none" transform="matrix(.5 0 0 .5 -733 813)"/>
    <path d="M3351 184c0-2-1-3-2-3l-7-13-8-12-5-12c-5-16-5-46 0-61 4-12 5-32 1-40-3-7-1-10 4-6l6 3 4 3 3 3c4 2 5 2 15 11 4 4 7 7 5 8l-4 6-4 8c-5 9-6 13-9 27l-3 24c0 12 6 45 8 49 2 1 2 3-1 5-3 3-3 3-3 0zM3365 18c-6-15-9-35-9-61 0-21 1-28 4-35 8-20 17-36 24-43 18-18 22-24 23-36 0-13 4-16 7-6 0 4 1 6 2 6 2 0 5 9 10 25 8 28 3 57-13 84l-6 12c-1 4-4 8-6 11-8 8-25 34-28 41-4 9-5 9-8 2z" style="fill:#f60;fill-opacity:1;stroke:none" transform="matrix(.5 0 0 .5 -733 813)"/>
    <path d="m3350 5-8-15-7-13c-4-4-10-25-12-35-1-6 1-20 3-38 3-22 4-30 2-35l-2-9c0-3 1-3 8 3l17 14 9 8-7 17c-5 13-8 22-9 33a138 138 0 0 0 7 56l3 10c5 10 2 13-4 4z" style="fill:#f60;fill-opacity:1;stroke:none" transform="matrix(.5 0 0 .5 -733 813)"/>
  </g>
  <g style="stroke:none">
    <path d="M2588 1378c-1-2 22-25 25-25l1-2 6-7 14-13a211 211 0 0 1 118-57c15-3 38-11 45-17 4-4 8-4 7 0l-9 13-10 17a174 174 0 0 1-91 63c-10 5-39 13-53 15-18 3-25 4-26 6l-6 2-9 2c-6 4-10 5-12 3zM2734 1255c-1-1 28-24 32-24l2-2 3-3 9-5 6-5 10-4 8-4c0-2 2-2 4-2l7-3 6-3 9-3c3-2 8-3 10-3s7-1 10-3l11-3 14-2 40-3a133 133 0 0 0 49-8c3 0 3 1 1 4l-4 4c-2 0-3 1-3 3l-2 2-10 9c-4 5-9 9-11 9l-2 2-5 4-7 3c-2 3-34 19-46 23-16 5-41 9-95 14a3179 3179 0 0 0-46 3z" style="fill:#f60;fill-opacity:1;stroke:none" transform="matrix(-.5 0 0 .5 1852 813)"/>
    <path d="M2589 1359a146 146 0 0 1 73-84l31-16 13-14 12-11v39l-10 3a160 160 0 0 0-50 24c-14 9-15 10-29 23l-13 11-14 14c-7 8-13 13-13 11zM2739 1233a146 146 0 0 1 29-29 139 139 0 0 1 48-29l13-6a218 218 0 0 0 65-30c2 0-3 17-10 30-4 8-6 10-12 11-24 3-47 10-70 21l-13 5-2 1-12 7-23 13c-11 8-13 9-13 6zM2912 1155l6-3 19-11a174 174 0 0 1 52-25l13-5c24-7 36-9 60-9 17 0 24-1 23-2-1-2 26-29 29-29l7-5a340 340 0 0 1 63-40c14-6 26-10 44-14 11-2 18-4 18-5 0-2 1-3 2-3l2-4 2-7 8-14 8-12 3-3c0-2 5-8 11-15l2-3 8-10c19-17 30-26 40-31a202 202 0 0 1 40-16l17-8c14-7 16-8 18-14 1-2 2-5 4-5s2 10 0 17c-2 3-3 10-4 17s-4 14-8 21a145 145 0 0 1-54 49 420 420 0 0 1-64 30l-15 6c-10 4-9 7 3 5 15-1 25-4 35-9l10-2c1 0 1 1-1 2l-2 3c0 2-1 3-2 3l-3 6c-2 4-7 9-19 21l-6 6c-4 6-33 24-53 31-17 7-22 9-36 12a594 594 0 0 1-87 14l-6 2-8 3c-3 3-1 3 19 3l31-2c15-4 16-4 16-2a146 146 0 0 1-32 27c-5 4-33 18-45 22-21 6-45 9-77 10-96 2-95 2-91-2z" style="fill:#f60;fill-opacity:1;stroke:none" transform="matrix(-.5 0 0 .5 1852 813)"/>
    <path d="m2925 1133 5-7 10-8c2-3 4-4 5-4l9-6 9-6 6-4 14-7 16-5c7-3 22-7 33-9 14-2 47-15 48-20 2-3 6-1 6 3s-5 16-8 17l-1 3c0 5-8 12-14 12a300 300 0 0 0-82 17l-23 10c-3 0-15 6-21 10-7 4-12 6-12 4zM3200 1019h2c2 1 2 2 0 2s-2 0-2-2zM3094 1068c3-6 14-22 16-22l1-2c0-2 13-15 25-24 12-8 33-20 45-24 16-4 31-13 39-21 6-5 9-7 10-6 1 2-2 33-4 34l-18 5c-9 2-25 8-35 13a159 159 0 0 1-21 10l-11 7-15 11a308 308 0 0 1-28 22c-4 4-6 3-4-3zM3239 985l4-22 12-30 8-10 10-13 11-9 9-8c7-3 28-23 33-32 2-6 5-10 6-9 3 3 6 15 7 28 1 10 1 13-2 13-4 0-27 12-34 18-13 12-25 25-36 41l-9 12c-3 2-5 6-5 7l-1 3-8 13-6 12zM3371 876c-2-2-3-5-2-13 3-20 7-44 10-50a26183 26183 0 0 1 19-40l4-3c2 0 3-3 4-6s2-5 4-5l3-3c0-2 1-3 3-3l2-2 6-4 12-8 11-8c8-6 19-17 22-23 4-7 6-6 9 3 3 11 2 48-2 52l-2 5c0 3-7 19-11 23l-2 4-9 10-14 14-13 9a184 184 0 0 0-51 46c0 2-2 3-3 2zM3357 847c0-2-1-7-3-10-4-10-4-45 0-55 7-16 10-21 16-29 11-16 18-31 18-40l1-8c3 0 18 22 18 26l2 5c2 2 2 9 0 9l-3 4-4 4c-2 0-3 1-3 3l-2 3c-2 0-9 7-9 10l-5 8c-9 11-18 39-20 58 0 6-2 13-3 14-2 2-3 1-3-2zM3436 725l-3-8c-5-10-13-44-14-60-1-13 0-19 3-30 5-18 8-26 12-32l4-7 1-2 7-9c3-5 6-8 7-8l2-3c0-2 1-3 2-3 3 0 9-17 9-24 0-5 1-7 3-6a109 109 0 0 1 18 37c3 2 6 33 5 44l-5 21c-4 12-15 33-17 33l-2 3c0 3-9 19-12 20l-1 3c0 2-1 3-2 3s-3 2-4 5c-3 10-13 26-13 23z" style="fill:#f60;fill-opacity:1;stroke:none" transform="matrix(-.5 0 0 .5 1852 813)"/>
    <path d="m3413 708-7-15-3-7c-1 0-9-17-11-26 0-3-2-6-3-6-2-2-2-36 2-46 3-11 3-34 0-43l-1-7c2-2 17 10 17 14l2 2c2 0 9 7 9 10l2 2 2 4c0 2-1 3-2 3l-2 4-1 5-6 13a149 149 0 0 0 7 92l3 9c-1 0-5-3-8-8zM3421 550c-2-2-3-7-3-9l-3-13c-5-13-4-63 1-77a123 123 0 0 1 22-38c0-2 3-6 8-11 5-4 9-9 9-10l1-2c3-1 10-17 10-22 0-3 1-5 2-5 3 0 11 17 13 25l3 8a143 143 0 0 1 2 54 463 463 0 0 0-12 31 121 121 0 0 1-25 34c0 2-7 13-10 15l-7 13-8 12-3-5z" style="fill:#f60;fill-opacity:1;stroke:none" transform="matrix(-.5 0 0 .5 1852 813)"/>
    <path d="m3409 541-3-8-3-7-12-20-9-20v-23c0-15 1-26 3-33 3-11 4-31 1-33s-3-9-1-9c4 0 19 13 24 21 5 6 6 9 4 15 0 3-2 7-3 8-7 2-7 81 0 98 3 8 3 16-1 11zM3427 376a246 246 0 0 1-19-28l-1-7-3-13-7-25c-4-17-4-18-1-34l6-21c3-4 8-47 6-55-1-6 3-7 9-1l10 9a143 143 0 0 1 25 41c5 8 5 47-1 66a822 822 0 0 0-13 64c0 15-3 16-11 4z" style="fill:#f60;fill-opacity:1;stroke:none" transform="matrix(-.5 0 0 .5 1852 813)"/>
    <path d="M3405 370a857 857 0 0 0-31-33l-2-3-5-9-6-12-4-25c-2-21-4-27-12-39-3-6-3-7 0-7 5 0 25 6 35 10 7 4 8 4 7 9-5 19-6 31-2 45a161 161 0 0 0 17 44c2 1 4 6 5 11l4 9c2 1 2 5 0 5-1 0-4-2-6-5zM3374 204l-1-5c-4-2-10-26-12-46a151 151 0 0 1 10-74c2-1 4-5 4-8l3-5 14-19c12-17 14-20 14-31 1-9 2-12 4-11 4 0 19 30 22 43s3 37 0 40l-2 6c0 3-9 24-14 31l-4 8-3 6c-1 0-2 1-2 4s-3 11-6 13a218 218 0 0 0-27 48z" style="fill:#f60;fill-opacity:1;stroke:none" transform="matrix(-.5 0 0 .5 1852 813)"/>
    <path d="M3351 184c0-2-1-3-2-3l-7-13-8-12-5-12c-5-16-5-46 0-61 4-12 5-32 1-40-3-7-1-10 4-6l6 3 4 3 3 3c4 2 5 2 15 11 4 4 7 7 5 8l-4 6-4 8c-5 9-6 13-9 27l-3 24c0 12 6 45 8 49 2 1 2 3-1 5-3 3-3 3-3 0zM3365 18c-6-15-9-35-9-61 0-21 1-28 4-35 8-20 17-36 24-43 18-18 22-24 23-36 0-13 4-16 7-6 0 4 1 6 2 6 2 0 5 9 10 25 8 28 3 57-13 84l-6 12c-1 4-4 8-6 11-8 8-25 34-28 41-4 9-5 9-8 2z" style="fill:#f60;fill-opacity:1;stroke:none" transform="matrix(-.5 0 0 .5 1852 813)"/>
    <path d="m3350 5-8-15-7-13c-4-4-10-25-12-35-1-6 1-20 3-38 3-22 4-30 2-35l-2-9c0-3 1-3 8 3l17 14 9 8-7 17c-5 13-8 22-9 33a138 138 0 0 0 7 56l3 10c5 10 2 13-4 4z" style="fill:#f60;fill-opacity:1;stroke:none" transform="matrix(-.5 0 0 .5 1852 813)"/>
  </g>
  <path d="M1126 938c5-11 10-22 20-29v-29h-45v29c10 7 16 18 20 29z" style="fill:#fff;fill-opacity:1;stroke:none" transform="matrix(1.55 0 0 1.55 -1183 -32)"/>
  <path d="M1126 934c4-10 9-19 17-25v-25h-39v25c8 6 13 15 18 25z" style="fill:#193d8c;fill-opacity:1;stroke:none" transform="matrix(1.55 0 0 1.55 -1183 -32)"/>
  <g transform="matrix(1.55 0 0 1.55 -1373 -30)">
    <circle cx="1245.9" cy="911.7" r="7.6" style="fill:#fff;fill-opacity:1;stroke:none"/>
    <path d="M1244 919h4v16h-4z" style="fill:#fff;fill-opacity:1;stroke:none"/>
  </g>
  <path d="m293 603-9 1-2 4 1 2 1 2c6-6 18-2 26-1 11 2 28 10 58 19 55 17 111 29 154 42 21 7 39 14 52 23 13 8 20 17 21 29l6-1c-1-14-10-24-24-33-13-9-32-17-53-24-44-13-99-25-154-42-29-9-46-17-59-19l-18-2zM912 603l8 1 3 4-1 2-2 2c-6-6-17-2-25-1-12 2-29 10-58 19-55 17-111 29-154 42-21 7-39 14-52 23-13 8-20 17-22 29l-6-1c2-14 11-24 24-33 14-9 32-17 54-24 43-13 99-25 154-42 29-9 45-17 59-19l18-2z" style="color:#000;font-style:normal;font-variant:normal;font-weight:400;font-stretch:normal;font-size:medium;line-height:normal;font-family:Sans;-inkscape-font-specification:Sans;text-indent:0;text-align:start;text-decoration:none;text-decoration-line:none;letter-spacing:normal;word-spacing:normal;text-transform:none;writing-mode:lr-tb;direction:ltr;baseline-shift:baseline;text-anchor:start;display:inline;overflow:visible;visibility:visible;fill:#fff;fill-opacity:1;stroke:none;stroke-width:3.96334362;marker:none;enable-background:accumulate" transform="translate(-41 614)"/>
  <g style="stroke:url(#U)" transform="matrix(1.55 0 0 1.55 -27 2)">
    <path d="m178 785 173 75" style="fill:url(#V);fill-opacity:1;stroke:url(#linearGradient4318);stroke-width:2;stroke-linecap:butt;stroke-linejoin:miter;stroke-miterlimit:4;stroke-dasharray:none;stroke-opacity:1"/>
    <path d="m186 785 166 71" style="fill:url(#W);fill-opacity:1;stroke:url(#linearGradient4322);stroke-width:2;stroke-linecap:butt;stroke-linejoin:miter;stroke-miterlimit:4;stroke-dasharray:none;stroke-opacity:1"/>
    <path d="m208 791 148 63" style="fill:#fff;fill-opacity:1;stroke:url(#X);stroke-width:2;stroke-linecap:butt;stroke-linejoin:miter;stroke-miterlimit:4;stroke-dasharray:none;stroke-opacity:1"/>
    <path d="m235 799 122 52" style="fill:url(#Y);fill-opacity:1;stroke:url(#linearGradient4328);stroke-width:2;stroke-linecap:butt;stroke-linejoin:miter;stroke-miterlimit:4;stroke-dasharray:none;stroke-opacity:1"/>
    <path d="m268 810 96 41" style="fill:none;stroke:url(#Z);stroke-width:2;stroke-linecap:butt;stroke-linejoin:miter;stroke-miterlimit:4;stroke-dasharray:none;stroke-opacity:1"/>
    <path d="m293 816 75 34" style="fill:url(#aa);fill-opacity:1;stroke:url(#linearGradient4334);stroke-width:2;stroke-linecap:butt;stroke-linejoin:miter;stroke-miterlimit:4;stroke-dasharray:none;stroke-opacity:1"/>
    <path d="m318 823 49 23" style="fill:url(#ab);fill-opacity:1;stroke:url(#linearGradient4338);stroke-width:2;stroke-linecap:butt;stroke-linejoin:miter;stroke-miterlimit:4;stroke-dasharray:none;stroke-opacity:1"/>
  </g>
  <path d="M916 606 647 722" style="fill:url(#ac);fill-opacity:1;stroke:url(#linearGradient4344);stroke-width:3.1046598;stroke-linecap:butt;stroke-linejoin:miter;stroke-miterlimit:4;stroke-dasharray:none;stroke-opacity:1" transform="translate(-41 614)"/>
  <path d="M904 605 645 717" style="fill:url(#ad);fill-opacity:1;stroke:url(#linearGradient4348);stroke-width:3.1046598;stroke-linecap:butt;stroke-linejoin:miter;stroke-miterlimit:4;stroke-dasharray:none;stroke-opacity:1" transform="translate(-41 614)"/>
  <path d="m870 615-230 99" style="fill:url(#ae);fill-opacity:1;stroke:url(#linearGradient4352);stroke-width:3.1046598;stroke-linecap:butt;stroke-linejoin:miter;stroke-miterlimit:4;stroke-dasharray:none;stroke-opacity:1" transform="translate(-41 614)"/>
  <path d="m827 629-189 80" style="fill:#f9f9f9;fill-opacity:1;stroke:url(#af);stroke-width:3.1046598;stroke-linecap:butt;stroke-linejoin:miter;stroke-miterlimit:4;stroke-dasharray:none;stroke-opacity:1" transform="translate(-41 614)"/>
  <path d="m776 644-149 65" style="fill:url(#ag);fill-opacity:1;stroke:url(#linearGradient4358);stroke-width:3.1046598;stroke-linecap:butt;stroke-linejoin:miter;stroke-miterlimit:4;stroke-dasharray:none;stroke-opacity:1" transform="translate(-41 614)"/>
  <path d="m739 655-119 52" style="fill:url(#ah);fill-opacity:1;stroke:url(#linearGradient4362);stroke-width:3.1046598;stroke-linecap:butt;stroke-linejoin:miter;stroke-miterlimit:4;stroke-dasharray:none;stroke-opacity:1" transform="translate(-41 614)"/>
  <path d="m711 661-88 40" style="fill:url(#ai);fill-opacity:1;stroke:url(#linearGradient4366);stroke-width:3.1046598;stroke-linecap:butt;stroke-linejoin:miter;stroke-miterlimit:4;stroke-dasharray:none;stroke-opacity:1" transform="translate(-41 614)"/>
  <path d="m372 641-13-256h27c-1 85-9 171-14 256z" style="fill:url(#aj);fill-opacity:1;stroke:none" transform="matrix(1.55 0 0 1.55 -27 2)"/>
  <path d="m393 610 26-222 28 2c-15 87-49 134-54 220z" style="fill:url(#ak);fill-opacity:1;stroke:none" transform="matrix(1.55 0 0 1.55 -27 2)"/>
  <path d="m478 396 30 6-53 122-9-24z" style="fill:url(#al);fill-opacity:1;stroke:none" transform="matrix(1.55 0 0 1.55 -27 2)"/>
  <path d="m539 410 31 7-104 160-11-5z" style="fill:url(#am);fill-opacity:1;stroke:none" transform="matrix(1.55 0 0 1.55 -27 2)"/>
  <path d="m605 427-16 63-128 136-17 9z" style="fill:url(#an);fill-opacity:1;stroke:none" transform="matrix(1.55 0 0 1.55 -27 2)"/>
  <path d="m584 534 1 28-135 100 1-8z" style="fill:url(#ao);fill-opacity:1;stroke:none" transform="matrix(1.55 0 0 1.55 -27 2)"/>
  <path d="m588 590 2 20-165 83z" style="fill:url(#ap);fill-opacity:1;stroke:none" transform="matrix(1.55 0 0 1.55 -27 2)"/>
  <path d="m594 634 2 18-169 51z" style="fill:url(#aq);fill-opacity:1;stroke:none" transform="matrix(1.55 0 0 1.55 -27 2)"/>
  <path d="m600 675 1 17-166 20h-3z" style="fill:url(#ar);fill-opacity:1;stroke:none" transform="matrix(1.55 0 0 1.55 -27 2)"/>
  <path d="m598 715-5 16-161-8z" style="fill:url(#as);fill-opacity:1;stroke:none" transform="matrix(1.55 0 0 1.55 -27 2)"/>
  <path d="m582 752-11 13-138-31-1-1z" style="fill:url(#at);fill-opacity:1;stroke:none" transform="matrix(1.55 0 0 1.55 -27 2)"/>
  <path d="m465 818-11 1-36-48z" style="fill:url(#au);fill-opacity:1;stroke:none" transform="matrix(1.55 0 0 1.55 -27 2)"/>
  <path d="M382 860h-6l3-80z" style="fill:url(#av);fill-opacity:1;stroke:none" transform="matrix(1.55 0 0 1.55 -27 2)"/>
  <path d="m358 612-26-222-28 2c15 87 50 134 54 220z" style="fill:url(#aw);fill-opacity:1;stroke:none" transform="matrix(1.55 0 0 1.55 -27 2)"/>
  <path d="m277 396-30 6 54 122 8-24z" style="fill:url(#ax);fill-opacity:1;stroke:none" transform="matrix(1.55 0 0 1.55 -27 2)"/>
  <path d="m216 410-30 7 103 160 12-5z" style="fill:url(#ay);fill-opacity:1;stroke:none" transform="matrix(1.55 0 0 1.55 -27 2)"/>
  <path d="m150 427 17 63 127 136 17 9z" style="fill:url(#az);fill-opacity:1;stroke:none" transform="matrix(1.55 0 0 1.55 -27 2)"/>
  <path d="M171 534v28l134 100-1-8z" style="fill:url(#aA);fill-opacity:1;stroke:none" transform="matrix(1.55 0 0 1.55 -27 2)"/>
  <path d="m167 590-2 20 165 83z" style="fill:url(#aB);fill-opacity:1;stroke:none" transform="matrix(1.55 0 0 1.55 -27 2)"/>
  <path d="m161 634-2 18 169 51z" style="fill:url(#aC);fill-opacity:1;stroke:none" transform="matrix(1.55 0 0 1.55 -27 2)"/>
  <path d="M155 675v17l165 20h3z" style="fill:url(#aD);fill-opacity:1;stroke:none" transform="matrix(1.55 0 0 1.55 -27 2)"/>
  <path d="m157 715 5 16 161-8z" style="fill:url(#aE);fill-opacity:1;stroke:none" transform="matrix(1.55 0 0 1.55 -27 2)"/>
  <path d="m174 752 10 13 139-31v-1z" style="fill:url(#aF);fill-opacity:1;stroke:none" transform="matrix(1.55 0 0 1.55 -27 2)"/>
  <path d="m195 786 13 5 126-50h2z" style="fill:url(#aG);fill-opacity:1;stroke:none" transform="matrix(1.55 0 0 1.55 -27 2)"/>
  <path d="m235 799 14 4 95-58 2-1z" style="fill:url(#aH);fill-opacity:1;stroke:none" transform="matrix(1.55 0 0 1.55 -27 2)"/>
  <path d="m271 808 8 4 63-56z" style="fill:url(#aI);fill-opacity:1;stroke:none" transform="matrix(1.55 0 0 1.55 -27 2)"/>
  <path d="m294 818 11 1 36-48z" style="fill:url(#aJ);fill-opacity:1;stroke:none" transform="matrix(1.55 0 0 1.55 -27 2)"/>
  <path d="m318 822 8 1 26-48z" style="fill:url(#aK);fill-opacity:1;stroke:none" transform="matrix(1.55 0 0 1.55 -27 2)"/>
  <path d="m339 827 7 3 16-53z" style="fill:url(#aL);fill-opacity:1;stroke:none" transform="matrix(1.55 0 0 1.55 -27 2)"/>
  <path d="m358 838 6 3 7-61z" style="fill:url(#aM);fill-opacity:1;stroke:none" transform="matrix(1.55 0 0 1.55 -27 2)"/>
  <path d="m421 827-7 3-16-53z" style="fill:url(#aN);fill-opacity:1;stroke:none" transform="matrix(1.55 0 0 1.55 -27 2)"/>
  <path d="m400 838-7 3-6-61z" style="fill:url(#aO);fill-opacity:1;stroke:none" transform="matrix(1.55 0 0 1.55 -27 2)"/>
  <path d="m441 822-8 1-25-48z" style="fill:url(#aP);fill-opacity:1;stroke:none" transform="matrix(1.55 0 0 1.55 -27 2)"/>
  <path d="m487 808-8 4-63-56z" style="fill:url(#aQ);fill-opacity:1;stroke:none" transform="matrix(1.55 0 0 1.55 -27 2)"/>
  <path d="m525 799-14 4-95-58-2-1z" style="fill:url(#aR);fill-opacity:1;stroke:none" transform="matrix(1.55 0 0 1.55 -27 2)"/>
  <path d="m564 786-13 5-126-50h-2z" style="fill:url(#aS);fill-opacity:1;stroke:none" transform="matrix(1.55 0 0 1.55 -27 2)"/>
  <path d="M166 724h41l-51 68H81ZM333 724h-42l51 68h76zM216 724h29v68h-78zM283 724h-30v68h79z" style="fill:#f9f9f9;fill-opacity:1;stroke:none" transform="matrix(1.55 0 0 1.3 173 194)"/>
  <path d="M772 482V344c0-37 2-111-4-152-17-74-97-123-166-152-73 32-154 83-166 152-6 41-4 115-4 152v138z" style="fill:#f9f9f9;fill-opacity:1;stroke:none" transform="translate(-41 614)"/>
  <path d="M483 697v-85c0-23 1-68-3-93-10-46-59-76-101-93-44 19-93 50-101 93-4 25-2 70-2 93v85h109z" style="fill:#193d8c;fill-opacity:1;stroke:#fff;stroke-width:2.05762792;stroke-linecap:butt;stroke-linejoin:miter;stroke-miterlimit:4;stroke-dasharray:none;stroke-opacity:1" transform="matrix(1.62 0 0 1.62 -53 -34)"/>
  <path d="M476 687v-79c0-21 1-63-3-87-9-41-55-70-94-86-41 18-87 47-94 86-3 24-2 66-2 87v79h102z" style="fill:#ffec00;fill-opacity:1;stroke:#fff;stroke-width:1.91502619;stroke-linecap:butt;stroke-linejoin:miter;stroke-miterlimit:4;stroke-dasharray:none;stroke-opacity:1" transform="matrix(1.62 0 0 1.62 -53 -34)"/>
  <path d="M369 688v-28l-12-3c-22-8-38-27-43-52l-2-16 8-1h7v3l2 15c2 5 4 11 7 15 3 5 10 12 14 15s10 6 15 7c28 8 57-12 62-43l1-10-1-8h-13l21-22 21 22h-13l-1 21c-5 31-29 54-57 57v28" style="color:#000;font-style:normal;font-variant:normal;font-weight:400;font-stretch:normal;font-size:medium;line-height:normal;font-family:Sans;-inkscape-font-specification:Sans;text-indent:0;text-align:start;text-decoration:none;text-decoration-line:none;letter-spacing:normal;word-spacing:normal;text-transform:none;writing-mode:lr-tb;direction:ltr;baseline-shift:baseline;text-anchor:start;display:inline;overflow:visible;visibility:visible;fill:#193d8c;fill-opacity:1;stroke:#fff;stroke-width:1.93602145;stroke-miterlimit:4;stroke-dasharray:none;stroke-opacity:1;marker:none;enable-background:accumulate" transform="matrix(1.62 0 0 1.62 -53 -34)"/>
  <path d="M313 540c7-40 47-65 85-52 22 7 39 26 44 50 1 4 2 15 1 16h-7l-7 1v-3l-3-15c-1-5-4-10-7-15l-14-14-14-7c-28-8-58 12-63 42v17l13 1-21 21-21-21 14-1v-20z" style="fill:#193d8c;fill-opacity:1;fill-rule:evenodd;stroke:#fff;stroke-width:1.91502619;stroke-miterlimit:4;stroke-dasharray:none;stroke-opacity:1" transform="matrix(1.62 0 0 1.62 -53 -34)"/>
  <g transform="matrix(1.62 0 0 1.62 -53 -34)">
    <circle cx="252.1" cy="552.4" r="20" style="fill:red;fill-opacity:1;stroke:#fff;stroke-width:1.79841924;stroke-miterlimit:4;stroke-dasharray:none;stroke-opacity:1" transform="matrix(.85 0 0 .85 163 62)"/>
    <circle cx="252.1" cy="552.4" r="20" style="fill:#f60;fill-opacity:1;stroke:#fff;stroke-width:1.79841924;stroke-miterlimit:4;stroke-dasharray:none;stroke-opacity:1" transform="matrix(.85 0 0 .85 163 99)"/>
    <circle cx="252.1" cy="552.4" r="20" style="fill:green;fill-opacity:1;stroke:#fff;stroke-width:1.79841924;stroke-miterlimit:4;stroke-dasharray:none;stroke-opacity:1" transform="matrix(.85 0 0 .85 163 137)"/>
  </g>
  <g aria-label="پلیس راهنمایی و رانندگی فراجا" style="font-style:normal;font-variant:normal;font-weight:400;font-stretch:normal;font-size:75.65058899px;line-height:1.25;font-family:&quot;Segoe UI&quot;;-inkscape-font-specification:&quot;Segoe UI, Normal&quot;;font-variant-ligatures:normal;font-variant-caps:normal;font-variant-numeric:normal;font-feature-settings:normal;text-align:start;letter-spacing:0;word-spacing:0;writing-mode:lr-tb;text-anchor:start;fill:#000;fill-opacity:1;stroke:none;stroke-width:1.8912648">
    <path d="m1028-123-8 12c-4 2-8 2-14-1l-3-1 7-15a1332 1332 0 0 1 10 3v-2l-3-8v-1a1405 1405 0 0 1 13-6c1 6 1 12-2 19zm-8 27-1 1a1235 1235 0 0 0-6 2l-3-6a1215 1215 0 0 0-6 2 1259 1259 0 0 0-2-7 1218 1218 0 0 1 6-2l3 6a1239 1239 0 0 1 6-2l3 6zm-8 6a1215 1215 0 0 0-7 2 1261 1261 0 0 0-2-6 1223 1223 0 0 1 6-2l3 6z" style="font-style:normal;font-variant:normal;font-weight:400;font-stretch:normal;font-family:&quot;B Titr&quot;;-inkscape-font-specification:&quot;B Titr&quot;;fill:#fff;stroke-width:1.8912648" transform="translate(-41 629)"/>
    <path d="M1005-112a1360 1360 0 0 0-6-5l-2-4c-4 2-8 2-11 1l-3-1 7-15h2c2 1 4 0 6-3a13180 13180 0 0 0 9-25 1248 1248 0 0 1 14-1l-13 31v3l2 3h1l-6 16z" style="font-style:normal;font-variant:normal;font-weight:400;font-stretch:normal;font-family:&quot;B Titr&quot;;-inkscape-font-specification:&quot;B Titr&quot;;fill:#fff;stroke-width:1.8912648" transform="translate(-41 629)"/>
    <path d="m986-120-3-1c-3-1-5-4-6-8-3 3-6 3-10 2l-4-2 6-15a1247 1247 0 0 1 9 0l3-3c1-2 2-2 3-1 1 0 2 1 1 3v4a1281 1281 0 0 1 7 5l-6 16zm-7 9v1a1156 1156 0 0 0-7 2l-2-5a1139 1139 0 0 0-6 2 1163 1163 0 0 0-2-7 1141 1141 0 0 1 6-2l3 5a1161 1161 0 0 1 6-2l2 6z" style="font-style:normal;font-variant:normal;font-weight:400;font-stretch:normal;font-family:&quot;B Titr&quot;;-inkscape-font-specification:&quot;B Titr&quot;;fill:#fff;stroke-width:1.8912648" transform="translate(-41 629)"/>
    <path d="m965-128-2-1c-3-1-4-3-5-6l-3 1h-4c-3-1-4-3-5-5-2 1-4 2-5 1l-4-2c-5 13-14 16-28 12-6-2-10-5-13-8-3-4-4-9-2-14l4-9c3-4 5-6 7-5l2 1-1 3-1 3-2 2c-1 5 3 9 12 12l8 2c4 0 7-1 7-3 1-1 0-5-4-10a1405 1405 0 0 1 11-9l3 7 5 3 4-1 2-3c1-1 2-2 3-1l1 2-1 4c0 2 1 3 3 3a2779 2779 0 0 1 9-5l1 3-1 3a1248 1248 0 0 1 5 4zM876-161c-2 9-6 15-12 19h-3l-17-5c-1 0-2-1-2-3l2-2 13-3c8-3 11-5 12-7 0-1-1-5-6-12a1325 1325 0 0 1 11-10c2 4 4 7 4 10 0 4 0 8-2 13zM848-186l-3 8-4 7-4 3-1-5c-1-4 0-16 2-39a1011 1011 0 0 1 17-8l-3 17-4 17zM827-185l-4 7-3 3c-2 1-4 2-6 1-2 0-5-3-9-7-4 3-8 4-11 3l-6-1 3-17 4 1v-3c1-4 3-5 5-6l-2-2a1300 1300 0 0 1 10-11l2 1 13 14 2 4c2 5 3 9 2 13zm-7 0-4-8-1 1c0 3-1 4-3 4a20 20 0 0 0 5 5l3-2zm-10-10-1-2-2-2h-3l-2 2 1 2 3 2h3l1-2z" style="font-style:normal;font-variant:normal;font-weight:400;font-stretch:normal;font-family:&quot;B Titr&quot;;-inkscape-font-specification:&quot;B Titr&quot;;fill:#fff;stroke-width:1.8912648" transform="translate(-41 629)"/>
    <path d="m790-179-3-1c-3 0-6-2-7-6-3 3-6 4-10 3h-3l3-17a968 968 0 0 1 8-1l2-4 3-2 2 3 1 5a979 979 0 0 1 8 4zm1-41v1a933 933 0 0 0-7 3 922 922 0 0 0-4-7 938 938 0 0 1 7-3l4 6z" style="font-style:normal;font-variant:normal;font-weight:400;font-stretch:normal;font-family:&quot;B Titr&quot;;-inkscape-font-specification:&quot;B Titr&quot;;fill:#fff;stroke-width:1.8912648" transform="translate(-41 629)"/>
    <path d="M769-183a951 951 0 0 0-6-3l-2-4c-2 4-5 5-9 5-4-1-7-3-9-8-3 4-5 5-8 5h-2l2-17h1c3 1 5 0 6-2 0-3 1-5 3-7s5-3 9-3c4 1 6 3 8 5l3 8c1 2 2 4 4 4l3 1zm-10-16v-6l-3-3h-2l-1 2v6l4 4c1 0 2-1 2-3z" style="font-style:normal;font-variant:normal;font-weight:400;font-stretch:normal;font-family:&quot;B Titr&quot;;-inkscape-font-specification:&quot;B Titr&quot;;fill:#fff;stroke-width:1.8912648" transform="translate(-41 629)"/>
    <path d="m735-188-4-1c-9-1-13-6-12-16a364 364 0 0 0 3-32 909 909 0 0 1 14-6l-4 32c-1 4 1 6 4 6h1zM710-211c0 7-2 12-4 14-3 3-7 5-13 4h-3l1-17a936 936 0 0 1 11 0v-2l-6-6v-2a985 985 0 0 1 10-9c4 5 5 11 4 18zm0 31v1a854 854 0 0 0-6 3l-4-4a850 850 0 0 0-5 3 854 854 0 0 0-4-5 857 857 0 0 1 6-4l4 4a862 862 0 0 1 5-3l4 5z" style="font-style:normal;font-variant:normal;font-weight:400;font-stretch:normal;font-family:&quot;B Titr&quot;;-inkscape-font-specification:&quot;B Titr&quot;;fill:#fff;stroke-width:1.8912648" transform="translate(-41 629)"/>
    <path d="M692-193a901 901 0 0 0-5-2l-3-4-10-2h-6l-2 1 5 1 9 2c3 1 5 3 4 7 0 10-9 15-26 14-10-1-16-3-20-8-2-3-3-7-2-12 0-3 0-6 2-10s3-6 5-6 3 1 3 4l-1 3v3c-1 7 5 11 18 12l15-1h2l-2-1-7-1-8-1c-2-1-3-3-3-5 0-5 4-9 11-10a59 59 0 0 1 23-1zM616-204c0 12-2 21-7 26l-2 1h-17c-2 0-3-1-3-2l1-2 11-7 9-8-9-1c-4-1-6-4-6-9l2-12c2-5 5-8 9-8 5 0 8 3 10 9l2 13zm-8-6-2-3h-3c-2 0-3 0-3 2 0 1 1 2 4 1h4zM568-198c0 9-2 16-6 21l-2 1-17 2c-2 0-4-1-4-3l1-2 12-8c6-5 9-8 9-10l-9-9a1175 1175 0 0 1 6-13c4 3 6 5 7 8 2 3 3 7 3 13zM533-212v8l-2 8-2 4-3-4-11-38a938 938 0 0 1 13-13l4 17 1 18zM513-211c1 7 0 12-2 15-2 4-6 6-12 6l-3 1-2-17a985 985 0 0 1 11-2l-1-2-7-5v-1a1025 1025 0 0 1 8-11c4 4 7 9 8 16zm-8-29v1a934 934 0 0 0-6 6 950 950 0 0 0-6-6 945 945 0 0 1 6-5l6 4z" style="font-style:normal;font-variant:normal;font-weight:400;font-stretch:normal;font-family:&quot;B Titr&quot;;-inkscape-font-specification:&quot;B Titr&quot;;fill:#fff;stroke-width:1.8912648" transform="translate(-41 629)"/>
    <path d="M499-189h-3c-4 0-7-1-9-4-2 4-4 6-8 6l-4 1-2-17a1009 1009 0 0 1 7-3l1-5 2-2c2-1 3 0 3 2l2 4a986 986 0 0 1 9 1zm-12-40v1a944 944 0 0 0-6 6 954 954 0 0 0-6-6 954 954 0 0 1 6-5l6 4z" style="font-style:normal;font-variant:normal;font-weight:400;font-stretch:normal;font-family:&quot;B Titr&quot;;-inkscape-font-specification:&quot;B Titr&quot;;fill:#fff;stroke-width:1.8912648" transform="translate(-41 629)"/>
    <path d="m477-187-3 1c-5 1-9-2-13-7-2 4-3 7-5 8-2 2-4 4-8 4-7 2-12-2-13-11l-1-6c1-3 1-4 3-5l3 2 2 3c1 1 3 2 6 1l5-1 3-3-1-1-8-13a967 967 0 0 1 8-10l11 18c1 3 3 5 6 4h3zM423-232l1 3a1024 1024 0 0 0-28 16v-5a1067 1067 0 0 1 27-14zm1 7a6571 6571 0 0 0 0 11l-14 7c5 4 8 8 9 13 1 7 0 12-4 16a17 17 0 0 1-9 4l-6 2-3-17a1081 1081 0 0 1 12-4l-1-1-3-2-8-5a2908 2908 0 0 1-1-10 1058 1058 0 0 1 28-14z" style="font-style:normal;font-variant:normal;font-weight:400;font-stretch:normal;font-family:&quot;B Titr&quot;;-inkscape-font-specification:&quot;B Titr&quot;;fill:#fff;stroke-width:1.8912648" transform="translate(-41 629)"/>
    <path d="M403-173a1060 1060 0 0 0-6 0l-4-3-10 1-6 2-1 1h4l10-1c3 0 5 2 6 5 2 10-5 17-21 21-10 3-17 2-21-1-3-2-5-6-6-10-1-3-2-7-1-11 0-4 1-6 3-7 2 0 3 0 4 3v3l1 3c1 7 8 9 20 6l14-5 2-1-2-1-7 2-8 1c-2 0-4-2-4-4-1-5 1-9 8-13a60 60 0 0 1 21-7l4 16zM322-174c5 14 0 23-14 27l-5 1-5-16a1246 1246 0 0 1 18-7l1-1-2-1-6 3c-6 2-10 0-11-5-1-3-2-6-1-10 1-5 3-7 6-8 4-2 9 0 13 5 3 3 5 7 6 12zm-10-6-3-1h-3l-2 1-1 2h5l4-2zm-7-23 1 1a1154 1154 0 0 0-5 7 1202 1202 0 0 0-7-5 1167 1167 0 0 1 5-6l6 3z" style="font-style:normal;font-variant:normal;font-weight:400;font-stretch:normal;font-family:&quot;B Titr&quot;;-inkscape-font-specification:&quot;B Titr&quot;;fill:#fff;stroke-width:1.8912648" transform="translate(-41 629)"/>
    <path d="M306-146a1224 1224 0 0 0-5 0l1 3v10l-2 8-1 1-17 6c-2 0-3 0-4-2l1-2 9-11c5-6 7-10 6-11 0-2-4-4-11-7a1589 1589 0 0 1 3-14l6 3a11 11 0 0 0 8 0l6 16zM263-153l2 9 1 8-2 4-4-3-19-34a1280 1280 0 0 1 9-16l7 16 6 16zM242-149v11c-4 1-7 3-9 5l-4 6-5 7-10 7-7 2-6-15a1465 1465 0 0 1 23-12 1352 1352 0 0 0-14 1l-3 3-2 2c-1 1-2 0-3-1-1-2 0-5 1-9 1-5 3-8 7-9h10l12 1 9-1 1 1v1zm-2 37 1 1a1322 1322 0 0 0-4 7 1282 1282 0 0 0-7-4 1341 1341 0 0 1 4-6l6 2z" style="font-style:normal;font-variant:normal;font-weight:400;font-stretch:normal;font-family:&quot;B Titr&quot;;-inkscape-font-specification:&quot;B Titr&quot;;fill:#fff;stroke-width:1.8912648" transform="translate(-41 629)"/>
    <path d="m209-112-3 2c-9 4-15 1-19-8a367 367 0 0 0-14-30 1385 1385 0 0 1 10-12l12 30c2 4 4 5 7 3h1l6 15z" style="font-style:normal;font-variant:normal;font-weight:400;font-stretch:normal;font-family:&quot;B Titr&quot;;-inkscape-font-specification:&quot;B Titr&quot;;fill:#fff;stroke-width:1.8912648" transform="translate(-41 629)"/>
  </g>
</svg>
